<svg width="85" height="85" viewBox="0 0 85 85" fill="none" xmlns="http://www.w3.org/2000/svg">
<circle cx="42.5" cy="42.5" r="42.5" fill="#F3F6FF"/>
<mask id="mask0_82_2906" style="mask-type:alpha" maskUnits="userSpaceOnUse" x="0" y="0" width="85" height="85">
<circle cx="42.5" cy="42.5" r="42.5" fill="#F3F6FF"/>
</mask>
<g mask="url(#mask0_82_2906)">
<path d="M105.743 5H-3.76604C-6.65668 5 -9 7.34332 -9 10.234V78.766C-9 81.6567 -6.65668 84 -3.76604 84H105.743C108.634 84 110.977 81.6567 110.977 78.766V10.234C110.977 7.34332 108.634 5 105.743 5Z" fill="#F3F6FF"/>
<path d="M101.153 74.1864H3.01664C2.91081 74.1864 2.82422 74.0998 2.82422 73.9939C2.82422 73.8881 2.91081 73.8015 3.01664 73.8015H101.153C101.259 73.8015 101.346 73.8881 101.346 73.9939C101.346 74.0998 101.259 74.1864 101.153 74.1864Z" fill="#BDD3FA"/>
<g opacity="0.86">
<g filter="url(#filter0_d_82_2906)">
<path d="M0.566257 42.4459C0.566257 48.9883 3.45263 54.8573 8.02272 58.8501C8.88863 59.6198 9.81226 60.2933 10.784 60.909C14.1322 63.0161 18.1058 64.238 22.3487 64.238C26.5917 64.238 30.3151 63.093 33.596 61.1111C39.9171 57.3011 44.1409 50.3545 44.1409 42.4555C44.1409 35.2011 40.581 28.7645 35.1257 24.8198C34.0193 24.0116 32.8263 23.3188 31.5659 22.7416C28.7565 21.4235 25.6296 20.6826 22.3391 20.6826C19.828 20.6826 17.4227 21.106 15.1809 21.8853C13.3433 22.5203 11.6114 23.4054 10.0336 24.4734C4.30892 28.3989 0.556641 34.9894 0.556641 42.4555L0.566257 42.4459Z" fill="#ADC2FF"/>
</g>
</g>
<path d="M27.6582 49.7483V49.3923C27.6582 49.3923 28.2355 49.6232 27.6582 49.7483Z" fill="#FFCBC5"/>
<path d="M8.01953 58.8596C8.88544 59.6293 9.80908 60.3028 10.7808 60.9185L33.5928 61.0725L27.541 56.0021C27.6565 55.5787 27.5699 55.1843 27.5699 55.1843L27.6372 50.4121V49.7579C27.2139 49.8541 26.0786 49.883 23.4424 49.6905C17.1405 49.1902 14.3599 42.4458 14.0328 41.6183C14.0328 41.5895 14.0328 41.5798 14.0232 41.5606C14.0136 41.551 14.0136 41.5317 14.0136 41.5317V42.0032L13.9847 44.2738V44.3892L13.9558 48.6226V50.5372L8.01953 58.8788V58.8596Z" fill="#FFCBC5"/>
<path d="M10.7617 32.9689C10.6462 34.1427 11.2812 35.2491 11.9932 36.0573C12.0221 36.115 12.0606 36.1824 12.1375 36.2401C12.532 36.6635 12.9265 37.0098 13.1862 37.2311C13.2536 37.2888 13.3306 37.3466 13.4171 37.4043C13.446 37.4331 13.4845 37.462 13.5326 37.4909L13.4941 40.7332C13.4941 40.7332 13.6673 41.2143 14.0137 41.984C14.0233 42.0129 14.0233 42.0225 14.0425 42.0513C14.8892 43.8794 16.7653 47.1795 19.796 49.123C20.152 49.3539 20.5176 49.5463 20.8832 49.7291C21.1141 49.8445 21.3258 49.9408 21.5375 50.0273C23.2693 50.7201 25.309 50.9317 27.647 50.3256C27.6854 50.3256 27.7336 50.316 27.772 50.2967C35.6903 48.1608 33.8527 33.3537 32.7462 27.3116C32.4672 25.7433 32.2267 24.762 32.2267 24.762C32.0535 24.0115 31.8322 23.3284 31.5724 22.7223C28.763 21.4042 25.6361 20.6633 22.3457 20.6633C19.8345 20.6633 17.4292 21.0867 15.1875 21.866L14.8315 32.4109C14.8315 32.4109 14.6198 32.2954 14.2927 32.18C14.2542 32.1511 14.1965 32.1415 14.1484 32.1222C14.0329 32.0837 13.9078 32.0356 13.7828 31.9971C13.6865 31.9587 13.5807 31.9298 13.4749 31.9106C13.4075 31.8817 13.3498 31.8721 13.2728 31.8528C13.2344 31.8432 13.1862 31.8432 13.1478 31.824C12.099 31.5834 10.8964 31.6219 10.7713 32.9593L10.7617 32.9689Z" fill="#FFCBC5"/>
<path d="M8.39312 35.0856C10.1538 36.9521 8.9704 37.4524 9.77858 40.637C10.5964 43.8409 13.9734 44.3604 13.9734 44.3604V44.245C14.0408 43.5042 14.06 42.7729 14.0312 42.0513V41.5991C14.0312 41.5991 14.0312 41.5607 14.0216 41.5414C13.9638 40.1944 13.7906 38.8379 13.5212 37.4909C13.4828 37.462 13.4347 37.4332 13.4058 37.4043C13.3192 37.3466 13.2518 37.2888 13.1749 37.2311C13.1075 37.1734 13.0306 37.1157 12.9632 37.0483C12.6361 36.8078 12.3667 36.5288 12.1262 36.2401C12.0588 36.1824 12.0107 36.115 11.9818 36.0573C11.2314 35.0759 11.0005 34.085 10.9428 33.3537C10.8754 32.5167 11.52 31.7662 12.3763 31.7662C12.6361 31.7662 12.8862 31.7951 13.1268 31.8336C13.1653 31.8432 13.2134 31.8432 13.2518 31.8625C13.3192 31.8721 13.3769 31.8913 13.4539 31.9202C13.5693 31.9298 13.6656 31.9587 13.7618 32.0068C13.8868 32.0453 14.0216 32.0934 14.1274 32.1318C14.1659 32.1415 14.2236 32.1607 14.2717 32.1896C14.5988 32.305 14.8105 32.4205 14.8105 32.4205L16.7347 29.3609C18.0336 26.8402 20.4774 26.234 23.1232 26.2533C25.4516 26.2821 27.6741 26.5227 29.8966 27.0999C30.8202 27.3405 31.8208 27.4944 32.7156 27.3116C33.4372 27.1673 34.0915 26.8017 34.5725 26.0608C34.8034 25.7049 34.9862 25.2815 35.0921 24.8005C33.9856 23.9923 32.7926 23.2995 31.5322 22.7223C28.7228 21.4042 25.5959 20.6633 22.3054 20.6633C19.7943 20.6633 17.389 21.0867 15.1472 21.866C13.3096 22.501 11.5777 23.3861 9.99987 24.4541C9.79782 25.2046 9.34563 25.8299 8.43161 26.0127C5.79539 26.4938 6.62281 33.2094 8.36426 35.0663L8.39312 35.0856Z" fill="#213B85"/>
<path d="M27.7616 50.2967C27.7616 50.2967 24.8848 51.7302 20.8824 49.7386C16.8799 47.747 13.9839 44.3604 13.9839 44.3604L13.9551 48.6033C13.9551 48.6033 22.0081 55.0111 27.7616 50.2967Z" fill="#FFB6AD"/>
<path d="M11.7141 53.645L14.0232 57.2722C15.4856 59.5621 18.0064 60.9571 20.7292 60.9764H22.7208C24.9144 61.0052 26.8098 59.4755 27.262 57.3299L27.541 55.9926L33.5447 61.063H33.5928V61.1015C30.3023 63.0834 26.4538 64.2284 22.3456 64.2284C18.2373 64.2284 14.129 63.0065 10.7808 60.8994C10.7808 60.8994 8.76999 59.5332 8.01953 58.8405L11.7141 53.6354V53.645Z" fill="#213B85"/>
<g filter="url(#filter1_d_82_2906)">
<path d="M101.713 27.1865H55.1466C53.8554 27.1865 52.8086 28.2333 52.8086 29.5245V30.1787C52.8086 31.47 53.8554 32.5167 55.1466 32.5167H101.713C103.005 32.5167 104.051 31.47 104.051 30.1787V29.5245C104.051 28.2333 103.005 27.1865 101.713 27.1865Z" fill="#ADC2FF"/>
</g>
<g opacity="0.86" filter="url(#filter2_d_82_2906)">
<path d="M87.049 40.8777H54.2213C53.9519 40.8777 53.7402 40.666 53.7402 40.3966C53.7402 40.1272 53.9519 39.9155 54.2213 39.9155H87.049C87.3184 39.9155 87.5301 40.1272 87.5301 40.3966C87.5301 40.666 87.3184 40.8777 87.049 40.8777Z" fill="#ADC2FF"/>
</g>
<g opacity="0.86" filter="url(#filter3_d_82_2906)">
<path d="M78.4381 48.5844H54.2311C53.9617 48.5844 53.75 48.3728 53.75 48.1034C53.75 47.834 53.9617 47.6223 54.2311 47.6223H78.4381C78.7075 47.6223 78.9192 47.834 78.9192 48.1034C78.9192 48.3728 78.7075 48.5844 78.4381 48.5844Z" fill="#ADC2FF"/>
</g>
<g opacity="0.86" filter="url(#filter4_d_82_2906)">
<path d="M66.3346 56.2907H54.2311C53.9617 56.2907 53.75 56.0791 53.75 55.8097C53.75 55.5403 53.9617 55.3286 54.2311 55.3286H66.3346C66.604 55.3286 66.8157 55.5403 66.8157 55.8097C66.8157 56.0791 66.604 56.2907 66.3346 56.2907Z" fill="#ADC2FF"/>
</g>
</g>
<defs>
<filter id="filter0_d_82_2906" x="-2.44336" y="16.6826" width="51.584" height="51.5553" filterUnits="userSpaceOnUse" color-interpolation-filters="sRGB">
<feFlood flood-opacity="0" result="BackgroundImageFix"/>
<feColorMatrix in="SourceAlpha" type="matrix" values="0 0 0 0 0 0 0 0 0 0 0 0 0 0 0 0 0 0 127 0" result="hardAlpha"/>
<feOffset dx="1"/>
<feGaussianBlur stdDeviation="2"/>
<feComposite in2="hardAlpha" operator="out"/>
<feColorMatrix type="matrix" values="0 0 0 0 0 0 0 0 0 0 0 0 0 0 0 0 0 0 0.13 0"/>
<feBlend mode="normal" in2="BackgroundImageFix" result="effect1_dropShadow_82_2906"/>
<feBlend mode="normal" in="SourceGraphic" in2="effect1_dropShadow_82_2906" result="shape"/>
</filter>
<filter id="filter1_d_82_2906" x="48.8086" y="25.1865" width="59.2427" height="13.3302" filterUnits="userSpaceOnUse" color-interpolation-filters="sRGB">
<feFlood flood-opacity="0" result="BackgroundImageFix"/>
<feColorMatrix in="SourceAlpha" type="matrix" values="0 0 0 0 0 0 0 0 0 0 0 0 0 0 0 0 0 0 127 0" result="hardAlpha"/>
<feOffset dy="2"/>
<feGaussianBlur stdDeviation="2"/>
<feComposite in2="hardAlpha" operator="out"/>
<feColorMatrix type="matrix" values="0 0 0 0 0 0 0 0 0 0 0 0 0 0 0 0 0 0 0.08 0"/>
<feBlend mode="normal" in2="BackgroundImageFix" result="effect1_dropShadow_82_2906"/>
<feBlend mode="normal" in="SourceGraphic" in2="effect1_dropShadow_82_2906" result="shape"/>
</filter>
<filter id="filter2_d_82_2906" x="49.7402" y="37.9155" width="41.79" height="8.96216" filterUnits="userSpaceOnUse" color-interpolation-filters="sRGB">
<feFlood flood-opacity="0" result="BackgroundImageFix"/>
<feColorMatrix in="SourceAlpha" type="matrix" values="0 0 0 0 0 0 0 0 0 0 0 0 0 0 0 0 0 0 127 0" result="hardAlpha"/>
<feOffset dy="2"/>
<feGaussianBlur stdDeviation="2"/>
<feComposite in2="hardAlpha" operator="out"/>
<feColorMatrix type="matrix" values="0 0 0 0 0 0 0 0 0 0 0 0 0 0 0 0 0 0 0.08 0"/>
<feBlend mode="normal" in2="BackgroundImageFix" result="effect1_dropShadow_82_2906"/>
<feBlend mode="normal" in="SourceGraphic" in2="effect1_dropShadow_82_2906" result="shape"/>
</filter>
<filter id="filter3_d_82_2906" x="49.75" y="45.6223" width="33.1689" height="8.96216" filterUnits="userSpaceOnUse" color-interpolation-filters="sRGB">
<feFlood flood-opacity="0" result="BackgroundImageFix"/>
<feColorMatrix in="SourceAlpha" type="matrix" values="0 0 0 0 0 0 0 0 0 0 0 0 0 0 0 0 0 0 127 0" result="hardAlpha"/>
<feOffset dy="2"/>
<feGaussianBlur stdDeviation="2"/>
<feComposite in2="hardAlpha" operator="out"/>
<feColorMatrix type="matrix" values="0 0 0 0 0 0 0 0 0 0 0 0 0 0 0 0 0 0 0.08 0"/>
<feBlend mode="normal" in2="BackgroundImageFix" result="effect1_dropShadow_82_2906"/>
<feBlend mode="normal" in="SourceGraphic" in2="effect1_dropShadow_82_2906" result="shape"/>
</filter>
<filter id="filter4_d_82_2906" x="49.75" y="53.3286" width="21.0654" height="8.96216" filterUnits="userSpaceOnUse" color-interpolation-filters="sRGB">
<feFlood flood-opacity="0" result="BackgroundImageFix"/>
<feColorMatrix in="SourceAlpha" type="matrix" values="0 0 0 0 0 0 0 0 0 0 0 0 0 0 0 0 0 0 127 0" result="hardAlpha"/>
<feOffset dy="2"/>
<feGaussianBlur stdDeviation="2"/>
<feComposite in2="hardAlpha" operator="out"/>
<feColorMatrix type="matrix" values="0 0 0 0 0 0 0 0 0 0 0 0 0 0 0 0 0 0 0.08 0"/>
<feBlend mode="normal" in2="BackgroundImageFix" result="effect1_dropShadow_82_2906"/>
<feBlend mode="normal" in="SourceGraphic" in2="effect1_dropShadow_82_2906" result="shape"/>
</filter>
</defs>
</svg>
