<svg width="16" height="18" viewBox="0 0 16 18" fill="#222" xmlns="http://www.w3.org/2000/svg">
<path d="M14.2812 1.3125L12.7188 2.875C11.4062 1.875 9.75 1.25 8 1.25C3.84375 1.25 0.4375 4.53125 0.25 8.625C0.21875 8.84375 0.40625 9 0.625 9H0.9375C1.125 9 1.28125 8.875 1.3125 8.65625C1.5 5.125 4.40625 2.3125 8 2.3125C9.46875 2.3125 10.8438 2.8125 11.9688 3.625L10.2812 5.3125C9.65625 5.9375 10.0938 7 11 7H15C15.5312 7 16 6.5625 16 6V2.03125C16 1.125 14.9062 0.6875 14.2812 1.3125ZM15 6H11L15 2V6ZM15.3438 9H15.0312C14.8438 9 14.6875 9.15625 14.6562 9.375C14.4688 12.9062 11.5625 15.6875 8 15.6875C6.5 15.6875 5.125 15.2188 4 14.4062L5.6875 12.7188C6.3125 12.0938 5.875 11 4.96875 11H1C0.4375 11 0 11.4688 0 12V16C0 16.9062 1.0625 17.3438 1.6875 16.7188L3.25 15.1562C4.5625 16.1562 6.21875 16.75 8 16.75C12.125 16.75 15.5312 13.5 15.7188 9.40625C15.75 9.1875 15.5625 9 15.3438 9ZM1 16V12H5L1 16Z" fill="#222"/>
</svg>
