<svg width="14" height="14" viewBox="0 0 14 14" fill="none" xmlns="http://www.w3.org/2000/svg">
<path d="M11.5938 10.6875C11.5938 10.332 11.293 10.0312 10.9375 10.0312C10.5547 10.0312 10.2812 10.332 10.2812 10.6875C10.2812 11.0703 10.5547 11.3438 10.9375 11.3438C11.293 11.3438 11.5938 11.0703 11.5938 10.6875ZM9.1875 10.0312C8.80469 10.0312 8.53125 10.332 8.53125 10.6875C8.53125 11.0703 8.80469 11.3438 9.1875 11.3438C9.54297 11.3438 9.84375 11.0703 9.84375 10.6875C9.84375 10.332 9.54297 10.0312 9.1875 10.0312ZM10.9375 6.09375C10.5547 6.09375 10.2812 6.39453 10.2812 6.75C10.2812 7.13281 10.5547 7.40625 10.9375 7.40625C11.293 7.40625 11.5938 7.13281 11.5938 6.75C11.5938 6.39453 11.293 6.09375 10.9375 6.09375ZM9.1875 6.09375C8.80469 6.09375 8.53125 6.39453 8.53125 6.75C8.53125 7.13281 8.80469 7.40625 9.1875 7.40625C9.54297 7.40625 9.84375 7.13281 9.84375 6.75C9.84375 6.39453 9.54297 6.09375 9.1875 6.09375ZM14 4.125V1.5C14 0.789062 13.3984 0.1875 12.6875 0.1875H1.3125C0.574219 0.1875 0 0.789062 0 1.5V4.125C0 4.15234 0 4.15234 0 4.15234C0 4.37109 0.0546875 4.58984 0.164062 4.78125C0.0546875 5 0 5.21875 0 5.4375V8.0625C0 8.08984 0 8.08984 0 8.08984C0 8.30859 0.0546875 8.52734 0.164062 8.71875C0.0546875 8.9375 0 9.15625 0 9.375V12C0 12.7383 0.574219 13.3125 1.3125 13.3125H12.6875C13.3984 13.3125 14 12.7383 14 12V9.375H13.9727C13.9727 9.15625 13.918 8.9375 13.8086 8.71875C13.918 8.52734 14 8.30859 14 8.08984V8.0625V5.4375H13.9727C13.9727 5.21875 13.918 5 13.8086 4.78125C13.918 4.58984 14 4.37109 14 4.15234V4.125ZM1.3125 4.125V1.5H12.6875V4.125H1.3125ZM12.6875 5.4375V8.0625H1.3125V5.4375H12.6875ZM12.6875 9.375V12H1.3125V9.375H12.6875ZM10.9375 3.46875C11.293 3.46875 11.5938 3.19531 11.5938 2.8125C11.5938 2.45703 11.293 2.15625 10.9375 2.15625C10.5547 2.15625 10.2812 2.45703 10.2812 2.8125C10.2812 3.19531 10.5547 3.46875 10.9375 3.46875ZM9.1875 3.46875C9.54297 3.46875 9.84375 3.19531 9.84375 2.8125C9.84375 2.45703 9.54297 2.15625 9.1875 2.15625C8.80469 2.15625 8.53125 2.45703 8.53125 2.8125C8.53125 3.19531 8.80469 3.46875 9.1875 3.46875Z" fill="black"/>
</svg>
