<svg width="13" height="13" viewBox="0 0 13 13" fill="none" xmlns="http://www.w3.org/2000/svg">
<path d="M3.625 10.5C3.625 10.3906 3.59766 10.3086 3.59766 10.2266L5.18359 9.24219C5.48437 9.48828 5.83984 9.625 6.25 9.625C6.63281 9.625 6.98828 9.48828 7.28906 9.24219L8.875 10.2266C8.875 10.3086 8.875 10.3906 8.875 10.5C8.875 11.457 9.64062 12.25 10.625 12.25C11.582 12.25 12.375 11.457 12.375 10.5C12.375 9.76172 11.9102 9.13281 11.2812 8.85937L11.2812 3.36328C11.9102 3.08984 12.375 2.46094 12.375 1.75C12.375 0.765625 11.582 -6.19814e-08 10.625 -1.03815e-07C9.88672 -1.36086e-07 9.25781 0.4375 8.98437 1.09375L3.48828 1.09375C3.21484 0.4375 2.58594 -4.55213e-07 1.875 -4.86289e-07C0.890625 -5.29318e-07 0.125 0.765624 0.125 1.75C0.125 2.46094 0.5625 3.08984 1.21875 3.36328L1.21875 8.85937C0.5625 9.13281 0.125 9.76172 0.125 10.4727C0.124999 11.457 0.890624 12.2227 1.875 12.2227C2.83203 12.25 3.625 11.457 3.625 10.5ZM3.48828 2.40625L8.98437 2.40625C9.17578 2.84375 9.50391 3.17187 9.96875 3.36328L9.96875 8.85937C9.80469 8.91406 9.69531 8.99609 9.55859 9.10547L7.97266 8.12109C7.97266 8.03906 8 7.95703 8 7.84766C8 6.89062 7.20703 6.09766 6.25 6.09766C5.26562 6.09766 4.5 6.89062 4.5 7.84766C4.5 7.95703 4.5 8.03906 4.5 8.12109L2.91406 9.10547C2.77734 8.99609 2.66797 8.91406 2.53125 8.85937L2.53125 3.36328C2.96875 3.17187 3.29687 2.84375 3.48828 2.40625ZM6.6875 7.875C6.6875 8.09375 6.46875 8.3125 6.25 8.3125C6.00391 8.3125 5.8125 8.09375 5.8125 7.875C5.8125 7.62891 6.00391 7.4375 6.25 7.4375C6.46875 7.4375 6.6875 7.62891 6.6875 7.875ZM11.0625 10.5C11.0625 10.7187 10.8437 10.9375 10.625 10.9375C10.3789 10.9375 10.1875 10.7187 10.1875 10.5C10.1875 10.2539 10.3789 10.0625 10.625 10.0625C10.8437 10.0625 11.0625 10.2539 11.0625 10.5ZM11.0625 1.75C11.0625 1.96875 10.8437 2.1875 10.625 2.1875C10.3789 2.1875 10.1875 1.96875 10.1875 1.75C10.1875 1.50391 10.3789 1.3125 10.625 1.3125C10.8437 1.3125 11.0625 1.50391 11.0625 1.75ZM1.4375 1.75C1.4375 1.50391 1.62891 1.3125 1.875 1.3125C2.09375 1.3125 2.3125 1.50391 2.3125 1.75C2.3125 1.96875 2.09375 2.1875 1.875 2.1875C1.62891 2.1875 1.4375 1.96875 1.4375 1.75ZM1.4375 10.5C1.4375 10.2539 1.62891 10.0625 1.875 10.0625C2.09375 10.0625 2.3125 10.2539 2.3125 10.5C2.3125 10.7187 2.09375 10.9375 1.875 10.9375C1.62891 10.9375 1.4375 10.7187 1.4375 10.5Z" fill="#656565"/>
</svg>
