<svg width="16" height="16" viewBox="0 0 16 16" fill="none" xmlns="http://www.w3.org/2000/svg">
<path d="M0.25 8C0.25 12.2812 3.71875 15.75 8 15.75C12.2812 15.75 15.75 12.2812 15.75 8C15.75 3.71875 12.2812 0.25 8 0.25C3.71875 0.25 0.25 3.71875 0.25 8ZM8 1.25C11.6875 1.25 14.75 4.28125 14.75 8C14.75 11.7188 11.7188 14.75 8 14.75C4.28125 14.75 1.25 11.75 1.25 8C1.25 4.3125 4.25 1.25 8 1.25ZM7 5L10 8L7 11V5ZM6 11C6 11.9062 7.0625 12.3438 7.6875 11.7188L10.6875 8.71875C11.0938 8.34375 11.0938 7.6875 10.6875 7.3125L7.6875 4.3125C7.0625 3.6875 6 4.125 6 5V11Z" fill="#454545"/>
</svg>
