<svg width="16" height="16" viewBox="0 0 16 16" fill="none" xmlns="http://www.w3.org/2000/svg">
<path d="M8 15.75C12.2812 15.75 15.75 12.2812 15.75 8C15.75 3.71875 12.2812 0.25 8 0.25C3.71875 0.25 0.25 3.71875 0.25 8C0.25 12.2812 3.71875 15.75 8 15.75ZM1.25 8C1.25 4.3125 4.25 1.25 8 1.25C11.6875 1.25 14.75 4.28125 14.75 8C14.75 11.7188 11.7188 14.75 8 14.75C4.28125 14.75 1.25 11.75 1.25 8ZM10.5 5H5.5C5.21875 5 5 5.25 5 5.5V10.5C5 10.7812 5.21875 11 5.5 11H10.5C10.75 11 11 10.7812 11 10.5V5.5C11 5.25 10.75 5 10.5 5ZM10 10H6V6H10V10Z" fill="#FF373A"/>
</svg>
