<svg id="minus" xmlns="http://www.w3.org/2000/svg" width="35.626" height="23.236" viewBox="0 0 35.626 23.236">
  <circle id="타원_1" data-name="타원 1" cx="11.618" cy="11.618" r="11.618" transform="translate(0 0)" fill="#42495f"/>
  <g id="패스_2" data-name="패스 2" transform="translate(12.39)">
    <path id="패스_5" data-name="패스 5" d="M11.618,0A11.618,11.618,0,1,1,0,11.618,11.618,11.618,0,0,1,11.618,0Z" fill="#fff"/>
    <path id="패스_6" data-name="패스 6" d="M11.618,0h1.047l.018,0h.046l.018,0h.046l.017,0h0l.018,0,.017,0h.012l.018,0,.018,0,.018,0h.011l.018,0,.017,0h0l.017,0h0l.017,0H13l.017,0h0l.018,0,.045.006.018,0h0l.017,0h.012l.017,0h0l.017,0h0l.017,0h0q.136.018.271.04h0L13.5.152l.018,0h0l.017,0h0l.017,0h0l.028,0h0l.017,0,.017,0h0l.028,0,.017,0,.017,0,.011,0H13.7l.011,0,.017,0,.017,0,.011,0h.006l.011,0h.007l.011,0,.017,0,.012,0h.006l.01,0h.007l.01,0h.007l.01,0,.008,0,.01,0,.009,0,.008,0,.009,0,.008,0,.01,0,.008,0,.01,0,.008,0,.009,0,.009,0,.008,0,.009,0,.008,0,.009,0,.008,0,.01,0,.008,0,.009,0,.008,0,.009,0,.009,0,.008,0,.009,0,.008,0h0l.01,0,.016,0h0l.017,0h0q.226.05.449.109l-.255.967A10.655,10.655,0,0,0,11.618,1V0Zm5.737,1.513,0,0h0l.015.009h0a11.646,11.646,0,0,1,1.67,1.159h0l.013.011h0l.027.022h0l.013.011h0l.013.011h0l.013.011h0l.013.011h0l.013.011h0l0,0h0l.008.006h0l.012.011h0l0,0h0l.007.006,0,0,0,0h0l.008.007h0l0,0h0l.008.007h0l0,0h0l.008.007h0l0,0h0l.007.006h0l0,0h0l.007.006h0l0,0,0,0,.006.006h0l0,0h0l.007.006h0l0,0,0,0L19.3,2.9h0l0,0,0,0,.007.006h0l0,0,0,0,.011.01,0,0,0,0,.006.006,0,0,.005,0,.006.005,0,0,.011.01,0,0,.011.01.005,0,0,0,0,0,.006,0,0,0,.005,0,0,0,0,0,0,0,.006.005,0,0,0,0,.005,0,0,0,.006.005,0,0,0,0,.006.005,0,0,0,0,0,0,0,0,0,0,0,0,.006.006,0,0,0,0,0,0,0,0,0,0,0,0,0,0,0,0,0,0,0,0,0,0,0,0,0,0,0,0,0,0,0,0h0l0,0h0l0,0,0,0,0,0h0l.005,0,0,0,0,0h0l.006.005h0l0,0h0l.005.005h0l0,0h0l.006.005h0l.005,0h0l.006.005h0l.005,0h0l.006.005h0l0,0h0l.006.005h0l.005,0h0l.006.006h0l.005.005h0l.006.006h0l.006.006h0l.006.006h0l.006.006h0l.006.006h0l.006.006h0l.025.024h0l.012.012h0l.01.009-.7.715a10.663,10.663,0,0,0-2.184-1.647ZM21.6,5.664l0,0h0l0,.006v0l0,.007h0l0,.006v0l0,.007h0l0,.007h0l0,.007h0l0,.006h0l.008.014h0l.008.014h0l0,.007h0l0,.007h0l0,.007h0l0,.007h0a11.553,11.553,0,0,1,1.04,2.355h0l0,.008h0l0,.008h0l0,.007h0l0,.008v0l0,.007h0l0,.008v0l0,.007h0l0,.007v0l0,.007h0l0,.008v0l0,.007h0l0,.007v0l0,.006v0l0,.006V8.28l0,.005V8.3l0,.007v.01l0,.008V8.33l0,.009v.007h0l0,.01h0l0,.005h0l0,.011h0l.01.034-.961.276a10.561,10.561,0,0,0-1.088-2.507l.858-.513Zm1.637,5.7c0,.071,0,.142,0,.214h0V11.6s0,0,0,.006v0s0,.006,0,.009h0s0,.006,0,.009h0s0,.005,0,.008v.01h0v.008h0v.027h0V11.7h0v.008h0v.008h0v.018h0v.017h0v.018h0v.009h0V11.8h0v.009h0v.017h0v.008h0v.017h0v.008h0v.009h0v.009h0v.009h0V11.9h0v.018h0v.009h0v.009h0v.018h0v.037h0a11.619,11.619,0,0,1-.315,2.348l-.972-.234a10.673,10.673,0,0,0,.293-2.49q0-.116,0-.231l1-.021Zm-2.268,5.293.88.476q-.206.381-.439.745h0l0,.007h0l0,.007h0l0,.007h0l0,.007h0l0,.007h0l-.009.014h0l-.009.014h0l-.009.014h0l0,.007h0l0,.006h0l0,.007h0l0,.006v0l0,.006h0l0,.005v0l0,.006h0l0,.006v0l0,.006h0l0,.006v0l0,.006h0l0,.006v0l0,0,0,0,0,.005v0l0,0,0,0,0,.005,0,0,0,0,0,0,0,0,0,0,0,0v0l0,.006,0,.006,0,0,0,0,0,0,0,0,0,0,0,0,0,0,0,0,0,0,0,0,0,0,0,0,0,0,0,0,0,0,0,0,0,0,0,0,0,0,0,0,0,0,0,0,0,0,0,0,0,.006,0,0,0,0,0,0-.009.012v0l-.009.013v0l-.009.012,0,0-.009.012v0l-.009.013h0l-.009.013h0l-.009.013h0l-.009.013h0l0,0h0l-.006.009h0l-.01.014h0l-.01.013h0l0,0h0l-.006.008h0l0,0h0l-.006.008h0l0,0h0l-.006.008h0l0,0h0l-.006.008h0l0,0h0l-.006.009h0l0,0h0l-.02.028h0l-.007.009h0l0,0h0q-.178.243-.369.476h0l-.022.027h0l-.022.027h0l-.022.027h0l-.011.013h0l-.011.013h0l-.011.013h0l-.011.013h0l-.011.013h0l-.011.013h0l-.011.013h0l0,0h0l-.006.007h0l0,0h0l-.007.008h0l0,0h0l-.006.008h0l0,0h0l-.006.007h0l0,0h0l-.006.007h0l0,0h0l-.006.007h0l0,0h0l-.006.007h0l0,0h0l-.006.007h0l0,0,0,0-.005.006,0,0,0,0,0,0-.005.006,0,0,0,0,0,0,0,0,0,0,0,.006,0,0,0,0,0,0,0,0,0,0,0,0,0,0,0,0,0,0,0,0,0,0,0,0,0,0,0,0,0,0,0,.005,0,0,0,0,0,0,0,0,0,0,0,0,0,0,0,0,0,0,0,0,0,0,0,0,0,0,0,0,0,0,0,0,0,0,0,0,0,0,0,0,0,.005,0,0,0,0,0,0,0,.005,0,0,0,0,0,0,0,.005v0l0,0,0,0,0,.005v0l0,0v0l0,.005h0l0,0,0,0,0,.005h0l0,0v0l-.005.006h0l0,.005h0l-.005.006h0l0,.005h0l-.005.006h0l-.005.006h0l-.006.006h0l-.005.006h0l-.011.012h0l-.01.01-.73-.684A10.655,10.655,0,0,0,20.966,16.659Zm-3.71,3.958.532.847-.089.055h0l-.014.009h0l-.014.009h0l-.014.009h0l-.014.008h0l-.014.008h0l-.013.008h0l-.009.005h0l-.006,0-.013.008h0l-.006,0-.006,0-.008,0-.007,0-.007,0-.008,0-.007,0-.008,0-.007,0-.008,0-.007,0,0,0-.007,0,0,0-.005,0-.008,0h0l-.006,0-.007,0h0l-.006,0h0l-.005,0h0l-.006,0h0l-.006,0h0l-.006,0h0l-.006,0h0l-.006,0h0l-.006,0h0l-.006,0h0l-.007,0h0l-.007,0h0l-.007,0h0l-.007,0h0l-.014.008h0l-.007,0h0l-.007,0h0l-.014.008h0l-.014.008h0l-.014.008h0l-.007,0h0l-.007,0h0l-.014.008h0l-.014.008h0l-.014.008h0l-.015.008h0l-.015.008h0l-.015.008h0l-.015.008h0l-.015.008h0l-.015.008h0l-.015.008h0l-.015.008h0l-.179.094h0l-.22.11h0l-.016.008h0l-.016.008h0l-.016.008h0l-.015.007h0l-.015.007h0l-.016.007h0l-.008,0h0l-.007,0h0l-.016.007h0l-.008,0h0l-.008,0h0l-.008,0h0l-.007,0h0l-.007,0h0l-.007,0h0l-.008,0h0l-.007,0h0l-.008,0h0l-.008,0h0l-.008,0h0l-.007,0h0l-.008,0h0l-.007,0h0l-.007,0-.008,0h0l-.007,0-.008,0h0l-.007,0-.008,0h0l-.007,0-.008,0h0l-.007,0-.008,0-.008,0-.008,0h0l-.007,0-.008,0-.008,0-.008,0h0l-.007,0-.008,0-.009,0-.007,0-.008,0-.007,0-.009,0-.007,0-.009,0-.007,0-.009,0-.007,0-.009,0-.007,0-.009,0-.007,0-.007,0-.007,0h0l-.007,0-.007,0h0l-.009,0-.006,0h0l-.009,0h0l-.006,0-.01,0h0l-.005,0-.01,0h0l-.016.007h0l-.049.02h0q-.478.2-.976.352l-.3-.955A10.569,10.569,0,0,0,17.255,20.618Zm-7.9,1.376a10.691,10.691,0,0,0,2.266.242c.153,0,.308,0,.461-.01l.043,1c-.139.006-.278.009-.419.01h-.72l-.045,0h-.1l-.063,0h-.1l-.064-.005h-.083l-.082-.008h-.083l-.09-.01h-.074l-.072-.009h-.1l-.053-.007H9.845l-.02,0H9.771l-.009,0H9.733l-.009,0-.009,0-.009,0-.009,0-.009,0-.028,0-.009,0-.009,0-.009,0-.009,0-.009,0-.009,0-.009,0-.01,0-.01,0-.01,0h0q-.213-.038-.424-.084ZM4.528,19.522A10.646,10.646,0,0,0,6.78,21.073l-.456.89q-.248-.127-.489-.266h0l-.015-.009h0L5.8,21.679h0l-.015-.008h0l-.014-.008h0l-.014-.008h0l-.014-.008h0l-.006,0h0l-.007,0h0l-.006,0h0l-.006,0h0l-.005,0h0l-.006,0h0l0,0h0l-.006,0-.007,0h0l-.006,0-.007,0h0l-.006,0-.007,0,0,0-.006,0-.006,0,0,0,0,0-.006,0-.013-.008h0l-.013-.008h0l-.013-.008h0l-.013-.008h0l-.013-.008h0l-.014-.009h0l-.014-.009h0L5.5,21.5h0a11.66,11.66,0,0,1-1.64-1.231ZM1.547,14.991a10.578,10.578,0,0,0,1.2,2.458L1.908,18A11.576,11.576,0,0,1,.819,15.911h0l-.006-.016h0l-.006-.015v0l0-.007h0l0-.007v0l0-.007h0l0-.007v0l0-.006h0l0-.007v0l0-.006v0l0-.006v0l0,0,0,0,0,0V15.79l0-.005v0l0,0v0l0-.007v0l0,0v0l0-.008h0l0-.005h0l0-.01h0l0-.005h0Q.669,15.519.6,15.309ZM.214,9.387l.982.191a10.711,10.711,0,0,0-.2,2.04c0,.23.007.462.022.691l-1,.064Q.007,12.1,0,11.82H0v-.011H0v-.123H0v-.018H0v-.028s0-.005,0-.008,0,0,0,0,0-.006,0-.008H0s0-.006,0-.009v-.338h0v-.042h0v-.115h0q0-.066.006-.132h0A11.634,11.634,0,0,1,.214,9.387ZM2.8,4.049l.758.652a10.637,10.637,0,0,0-1.5,2.285l-.9-.437.013-.026h0l.007-.015v0l0-.008h0l0,0v0l0-.007v0l0,0,0,0,0,0,0,0,0,0,0,0,0,0,0,0v0l0,0v0l0-.006v0l0-.005v0l0-.007v0l0-.006h0l0-.007h0l0-.006h0l0-.007h0l0-.007h0l0-.008h0l0-.007h0l0-.008h0l.012-.023h0A11.606,11.606,0,0,1,1.9,5.246h0l0-.007h0l0-.007h0l0-.007h0l0-.007h0l0-.007h0l0-.007h0l0-.007h0l0-.007h0l0-.006h0l0-.006h0l0-.005h0l0-.006v0l0,0v0l0-.006v0l0,0,0,0,0-.006,0,0,0,0,0,0,0-.005,0,0,0,0,0,0L2,5.1l0,0,0,0,0,0,0-.006v0l0,0,0,0,0,0,0,0,0,0,0,0,0,0,0,0,0,0,0,0,0,0,0-.005,0,0,0,0,0,0,0-.006,0,0,0,0v0l0-.006v0l0,0h0L2.07,5v0l0,0v0l.005-.007h0l0,0h0l.006-.008h0l0,0h0L2.1,4.953h0l.01-.014h0l0,0h0q.29-.411.613-.795h0l.011-.013h0l.011-.013h0l.01-.012h0l.01-.012,0,0,0,0,0,0,0,0,0-.006,0,0,0,0,0,0,0,0ZM7.689.681l.338.941A10.587,10.587,0,0,0,5.6,2.871l-.568-.823q.311-.215.637-.409h0l.03-.018h0l.03-.017h0l.015-.009h0l.015-.009h0l.015-.009h0l.015-.008h0L5.8,1.559h0l.014-.008h0l.014-.008h0l.014-.008h0l.014-.008h0l.014-.008h0l.014-.008h0L5.907,1.5h0l.014-.008h0l.014-.008h0l.013-.007h0l.013-.007.006,0,.005,0,.006,0,.006,0,.006,0,0,0,.009,0h0l.006,0,.013-.007h0l.013-.007h0l.013-.007h0L6.076,1.4h0L6.091,1.4h0l.014-.007h0l.014-.007h0l.013-.007h0l.009,0,0,0h0l.013-.007h0l.013-.007h0L6.2,1.338h0l.014-.007h0l.007,0,.007,0h0l.013-.007h0l.014-.007h0L6.277,1.3h0l.009,0h0l.006,0,.014-.007h0l.014-.007h0l.014-.007h0l.009,0h0l.006,0,.014-.007h0l.015-.007h0L6.4,1.234h0l.015-.008h0l.015-.008h0L6.466,1.2h0A11.549,11.549,0,0,1,7.689.681ZM11.618,0V1c-.307,0-.616.013-.92.039l-.085-1q.233-.02.468-.031h.538Z" fill="#42495f"/>
  </g>
</svg>
