<svg id="planithc_origin" xmlns="http://www.w3.org/2000/svg" width="105.187" height="34.402" viewBox="0 0 105.187 34.402">
  <g id="c">
    <g id="그룹_2102" data-name="그룹 2102">
      <g id="그룹_2100" data-name="그룹 2100">
        <g id="그룹_2096" data-name="그룹 2096" transform="translate(0 1.486)">
          <path id="패스_31741" data-name="패스 31741" d="M14.037,6.29A14.073,14.073,0,0,0,0,20.327V34.365H14.037a14.037,14.037,0,0,0,0-28.075ZM7.018,27.345v-7.02a7.018,7.018,0,1,1,7.018,7.02H7.018" transform="translate(0 -6.29)" fill="#00bcf1"/>
          <rect id="사각형_354" data-name="사각형 354" width="7.018" height="7.02" transform="translate(0 21.055)" fill="#211d70"/>
        </g>
        <g id="그룹_2099" data-name="그룹 2099" transform="translate(33.913)">
          <g id="그룹_2098" data-name="그룹 2098" transform="translate(0 4.021)">
            <g id="그룹_2097" data-name="그룹 2097" transform="translate(15.245)">
              <path id="패스_31742" data-name="패스 31742" d="M235.8,37.135a6.991,6.991,0,1,0-3.492,13.05H235V47.316h-2.691a4.127,4.127,0,1,1,4.128-4.128v4.128h0v2.868l2.866-2.868V43.189a6.986,6.986,0,0,0-3.5-6.051Z" transform="translate(-221.232 -31.661)" fill="#211d70"/>
              <path id="패스_31743" data-name="패스 31743" d="M208.05,40.382l2.935-2.89V23.33l-2.935,2.937Z" transform="translate(-208.05 -21.839)" fill="#211d70"/>
              <path id="패스_31744" data-name="패스 31744" d="M301.977,37.849a7.2,7.2,0,0,0-2.261-1.524,7.049,7.049,0,0,0-5.529,0,7.212,7.212,0,0,0-2.259,1.524,7.08,7.08,0,0,0-1.507,2.245,6.493,6.493,0,0,0-.525,2.724v7.058l2.935-2.89V42.818a4.047,4.047,0,0,1,.326-1.609,3.975,3.975,0,0,1,.888-1.311,4.246,4.246,0,0,1,1.314-.874,4.064,4.064,0,0,1,3.19,0,4.288,4.288,0,0,1,1.314.874,3.98,3.98,0,0,1,.891,1.311,4.1,4.1,0,0,1,.324,1.609v7.058l2.937-2.89V42.818a6.53,6.53,0,0,0-.525-2.724,7.086,7.086,0,0,0-1.51-2.245Z" transform="translate(-270.556 -31.332)" fill="#211d70"/>
              <path id="패스_31745" data-name="패스 31745" d="M354.41,38.81V49.875l2.909-2.89V35.76H354.41Z" transform="translate(-319.828 -31.332)" fill="#211d70"/>
              <path id="패스_31746" data-name="패스 31746" d="M357.3,19.983V17.02l-2.937,2.963Z" transform="translate(-319.79 -17.02)" fill="#211d70"/>
            </g>
            <path id="패스_31747" data-name="패스 31747" d="M150.526,36.012a7.016,7.016,0,0,0-7,6.994V55.557h0l2.868-2.868v-8.3h0V43a4.128,4.128,0,1,1,4.128,4.128h-2.691V50h2.691a7,7,0,1,0,0-13.992Z" transform="translate(-143.53 -31.523)" fill="#211d70"/>
          </g>
          <path id="패스_31748" data-name="패스 31748" d="M376.969,19.3a4.127,4.127,0,0,1-2.219-2.214,4.09,4.09,0,0,1-.324-1.611V11.386h4.092V8.449h-4.092V0L371.49,2.937V15.623a6.838,6.838,0,0,0,.6,2.71,7.232,7.232,0,0,0,1.541,2.2,7.436,7.436,0,0,0,2.23,1.484,6.76,6.76,0,0,0,2.71.548V19.632a4.047,4.047,0,0,1-1.609-.326Z" transform="translate(-317.628)" fill="#211d70"/>
        </g>
      </g>
      <g id="그룹_2101" data-name="그룹 2101" transform="translate(48.99 25.773)">
        <path id="패스_31749" data-name="패스 31749" d="M207.342,109.082h.787v3.454a3.329,3.329,0,0,1,1.051-.94,2.558,2.558,0,0,1,1.24-.312,2.2,2.2,0,0,1,1.217.347,2.079,2.079,0,0,1,.784.936,4.978,4.978,0,0,1,.253,1.841v3.145h-.787v-2.916a7.4,7.4,0,0,0-.085-1.411,1.445,1.445,0,0,0-1.541-1.219,1.942,1.942,0,0,0-1.278.473,2.219,2.219,0,0,0-.744,1.167,8,8,0,0,0-.113,1.663v2.24h-.787V109.08Z" transform="translate(-207.34 -109.08)" fill="#211d70"/>
        <path id="패스_31750" data-name="패스 31750" d="M239.274,122.644l.664.347a3.582,3.582,0,0,1-.754,1.033,3,3,0,0,1-.962.6,3.347,3.347,0,0,1-1.21.206,2.919,2.919,0,0,1-2.339-.981,3.308,3.308,0,0,1-.844-2.216,3.273,3.273,0,0,1,.714-2.072,2.921,2.921,0,0,1,2.424-1.158,3.046,3.046,0,0,1,2.5,1.186,3.323,3.323,0,0,1,.676,2.089h-5.5a2.483,2.483,0,0,0,.68,1.746,2.173,2.173,0,0,0,1.626.68,2.588,2.588,0,0,0,.907-.163,2.417,2.417,0,0,0,.751-.43,3.656,3.656,0,0,0,.669-.867Zm0-1.647a2.617,2.617,0,0,0-.458-1.007,2.172,2.172,0,0,0-.8-.607,2.434,2.434,0,0,0-1.04-.229,2.248,2.248,0,0,0-1.548.579,2.615,2.615,0,0,0-.714,1.264Z" transform="translate(-227.571 -116.198)" fill="#211d70"/>
        <path id="패스_31751" data-name="패스 31751" d="M269.993,118.561v6.11h-.775v-1.051a3.371,3.371,0,0,1-1.108.9,3.1,3.1,0,0,1-3.561-.638,3.154,3.154,0,0,1-.919-2.29,3.072,3.072,0,0,1,.926-2.259,3.017,3.017,0,0,1,2.23-.938,2.891,2.891,0,0,1,1.361.319,3.088,3.088,0,0,1,1.07.962v-1.125h.775Zm-3.143.6a2.377,2.377,0,0,0-2.1,1.229,2.473,2.473,0,0,0,0,2.467,2.4,2.4,0,0,0,.888.917,2.321,2.321,0,0,0,1.2.328,2.468,2.468,0,0,0,1.224-.326,2.276,2.276,0,0,0,.888-.881,2.512,2.512,0,0,0,.312-1.252,2.432,2.432,0,0,0-.7-1.772,2.316,2.316,0,0,0-1.72-.714Z" transform="translate(-250.33 -116.198)" fill="#211d70"/>
        <path id="패스_31752" data-name="패스 31752" d="M295.6,109.09h.787v8.471H295.6Z" transform="translate(-274.746 -109.088)" fill="#211d70"/>
        <path id="패스_31753" data-name="패스 31753" d="M303.333,109.47h.787v2.268h1.248v.68H304.12v5.432h-.787v-5.432H302.26v-.68h1.073Z" transform="translate(-279.832 -109.378)" fill="#211d70"/>
        <path id="패스_31754" data-name="패스 31754" d="M318.442,109.082h.787v3.454a3.329,3.329,0,0,1,1.051-.94,2.558,2.558,0,0,1,1.24-.312,2.2,2.2,0,0,1,1.217.347,2.079,2.079,0,0,1,.784.936,4.978,4.978,0,0,1,.253,1.841v3.145h-.787v-2.916a7.4,7.4,0,0,0-.085-1.411,1.445,1.445,0,0,0-1.541-1.219,1.942,1.942,0,0,0-1.278.473,2.219,2.219,0,0,0-.744,1.167,8,8,0,0,0-.113,1.663v2.24h-.787V109.08Z" transform="translate(-292.189 -109.08)" fill="#211d70"/>
        <path id="패스_31755" data-name="패스 31755" d="M351.214,119.822l-.624.387a2.61,2.61,0,0,0-2.2-1.073,2.548,2.548,0,0,0-1.855.718,2.346,2.346,0,0,0-.737,1.744,2.475,2.475,0,0,0,.34,1.257,2.388,2.388,0,0,0,.931.914,2.817,2.817,0,0,0,3.528-.747l.624.409a2.947,2.947,0,0,1-1.177,1.023,3.746,3.746,0,0,1-1.682.364,3.318,3.318,0,0,1-2.4-.921,3,3,0,0,1-.955-2.242,3.207,3.207,0,0,1,.447-1.649,3.154,3.154,0,0,1,1.226-1.188,3.592,3.592,0,0,1,1.746-.428,3.765,3.765,0,0,1,1.172.184,3.214,3.214,0,0,1,.957.482,2.637,2.637,0,0,1,.669.758Z" transform="translate(-312.474 -116.19)" fill="#211d70"/>
        <path id="패스_31756" data-name="패스 31756" d="M380.943,118.561v6.11h-.775v-1.051a3.371,3.371,0,0,1-1.108.9,3.1,3.1,0,0,1-3.561-.638,3.154,3.154,0,0,1-.919-2.29,3.072,3.072,0,0,1,.926-2.259,3.017,3.017,0,0,1,2.23-.938,2.891,2.891,0,0,1,1.361.319,3.089,3.089,0,0,1,1.07.962v-1.125h.775Zm-3.143.6a2.377,2.377,0,0,0-2.1,1.229,2.472,2.472,0,0,0,0,2.467,2.4,2.4,0,0,0,.888.917,2.321,2.321,0,0,0,1.2.328,2.467,2.467,0,0,0,1.224-.326,2.276,2.276,0,0,0,.888-.881,2.512,2.512,0,0,0,.312-1.252,2.432,2.432,0,0,0-.7-1.772,2.316,2.316,0,0,0-1.72-.714Z" transform="translate(-335.065 -116.198)" fill="#211d70"/>
        <path id="패스_31757" data-name="패스 31757" d="M405.79,118.568h.8v.893a2.8,2.8,0,0,1,.758-.789,1.5,1.5,0,0,1,.832-.262,1.43,1.43,0,0,1,.7.208l-.409.664a1.1,1.1,0,0,0-.416-.106,1.14,1.14,0,0,0-.758.324,2.049,2.049,0,0,0-.555,1,9.629,9.629,0,0,0-.146,2.112v2.067h-.8v-6.11Z" transform="translate(-358.9 -116.206)" fill="#211d70"/>
        <path id="패스_31758" data-name="패스 31758" d="M423.924,122.644l.664.347a3.582,3.582,0,0,1-.754,1.033,3,3,0,0,1-.962.6,3.348,3.348,0,0,1-1.21.206,2.919,2.919,0,0,1-2.339-.981,3.308,3.308,0,0,1-.844-2.216,3.273,3.273,0,0,1,.714-2.072,2.921,2.921,0,0,1,2.424-1.158,3.046,3.046,0,0,1,2.5,1.186,3.322,3.322,0,0,1,.676,2.089h-5.5a2.483,2.483,0,0,0,.681,1.746,2.173,2.173,0,0,0,1.626.68,2.588,2.588,0,0,0,.907-.163,2.417,2.417,0,0,0,.751-.43,3.658,3.658,0,0,0,.669-.867Zm0-1.647a2.617,2.617,0,0,0-.458-1.007,2.171,2.171,0,0,0-.8-.607,2.434,2.434,0,0,0-1.04-.229,2.248,2.248,0,0,0-1.548.579,2.615,2.615,0,0,0-.714,1.264Z" transform="translate(-368.592 -116.198)" fill="#211d70"/>
      </g>
    </g>
  </g>
</svg>
