<svg id="researchex_white" xmlns="http://www.w3.org/2000/svg" width="298.393" height="77.43" viewBox="0 0 298.393 77.43">
  <path id="패스_31638" data-name="패스 31638" d="M18.8,27.644H8.669V45.1H2.95V1.953H17.233q7.29,0,11.215,3.318t3.926,9.66A11.619,11.619,0,0,1,30.2,21.955a12.993,12.993,0,0,1-6.06,4.474L34.272,44.742V45.1H28.167ZM8.669,22.992H17.41a9.857,9.857,0,0,0,6.741-2.2,7.429,7.429,0,0,0,2.5-5.878A7.821,7.821,0,0,0,24.27,8.773q-2.387-2.139-6.889-2.168H8.669Z" transform="translate(0.63 0.418)" fill="#fff"/>
  <path id="패스_31639" data-name="패스 31639" d="M45.1,43.844a14.008,14.008,0,0,1-10.609-4.282q-4.089-4.282-4.089-11.453V27.1a19.241,19.241,0,0,1,1.823-8.519,14.213,14.213,0,0,1,5.1-5.867,12.809,12.809,0,0,1,7.1-2.119q6.252,0,9.72,4.119t3.466,11.793V28.79H35.887a11.391,11.391,0,0,0,2.77,7.66A8.709,8.709,0,0,0,45.4,39.369a9.549,9.549,0,0,0,4.918-1.185,12.361,12.361,0,0,0,3.527-3.141l3.347,2.607Q53.163,43.844,45.1,43.844M44.421,15.1a7.315,7.315,0,0,0-5.571,2.415,11.736,11.736,0,0,0-2.786,6.77H52.126v-.414A10.449,10.449,0,0,0,49.873,17.4a6.886,6.886,0,0,0-5.452-2.3" transform="translate(6.499 2.266)" fill="#fff"/>
  <path id="패스_31640" data-name="패스 31640" d="M75.445,34.746a4.037,4.037,0,0,0-1.674-3.452,16.1,16.1,0,0,0-5.838-2.119,27.539,27.539,0,0,1-6.608-2.134,9.4,9.4,0,0,1-3.616-2.963,7.087,7.087,0,0,1-1.17-4.089,8.315,8.315,0,0,1,3.333-6.667A13.022,13.022,0,0,1,68.392,10.6a13.4,13.4,0,0,1,8.846,2.815,8.942,8.942,0,0,1,3.392,7.2H75.119a4.95,4.95,0,0,0-1.91-3.882,7.165,7.165,0,0,0-4.816-1.63,7.5,7.5,0,0,0-4.681,1.3,4.1,4.1,0,0,0-1.69,3.407A3.326,3.326,0,0,0,63.592,22.8a19.282,19.282,0,0,0,5.675,1.926,29.6,29.6,0,0,1,6.652,2.193A9.7,9.7,0,0,1,79.7,29.99a7.534,7.534,0,0,1,1.231,4.371A8.208,8.208,0,0,1,77.49,41.25a14.423,14.423,0,0,1-8.92,2.593,16.136,16.136,0,0,1-6.815-1.363,11.069,11.069,0,0,1-4.638-3.807,9.176,9.176,0,0,1-1.674-5.289h5.481a5.674,5.674,0,0,0,2.208,4.371,8.563,8.563,0,0,0,5.438,1.615,8.84,8.84,0,0,0,4.993-1.26,3.869,3.869,0,0,0,1.881-3.363" transform="translate(11.851 2.266)" fill="#fff"/>
  <path id="패스_31641" data-name="패스 31641" d="M94.374,43.844a14.008,14.008,0,0,1-10.609-4.282q-4.089-4.282-4.089-11.453V27.1A19.241,19.241,0,0,1,81.5,18.582a14.213,14.213,0,0,1,5.1-5.867,12.809,12.809,0,0,1,7.1-2.119q6.252,0,9.72,4.119t3.466,11.793V28.79H85.158a11.391,11.391,0,0,0,2.77,7.66,8.708,8.708,0,0,0,6.742,2.919,9.549,9.549,0,0,0,4.918-1.185,12.361,12.361,0,0,0,3.527-3.141l3.347,2.607q-4.029,6.194-12.089,6.194M93.692,15.1a7.315,7.315,0,0,0-5.571,2.415,11.736,11.736,0,0,0-2.786,6.77H101.4v-.414A10.449,10.449,0,0,0,99.144,17.4a6.886,6.886,0,0,0-5.452-2.3" transform="translate(17.03 2.266)" fill="#fff"/>
  <path id="패스_31642" data-name="패스 31642" d="M125.768,43.25A11.485,11.485,0,0,1,125,39.873a12.23,12.23,0,0,1-9.126,3.971,11.317,11.317,0,0,1-7.779-2.682,8.674,8.674,0,0,1-3.037-6.8,9.064,9.064,0,0,1,3.807-7.779q3.807-2.769,10.712-2.77h5.333V21.294a6.157,6.157,0,0,0-1.719-4.578,6.908,6.908,0,0,0-5.067-1.7,8,8,0,0,0-4.918,1.481,4.366,4.366,0,0,0-1.986,3.587h-5.512a7.564,7.564,0,0,1,1.7-4.638,11.629,11.629,0,0,1,4.622-3.542,15.554,15.554,0,0,1,6.416-1.3q5.54,0,8.682,2.771a10,10,0,0,1,3.26,7.63V35.754a18.053,18.053,0,0,0,1.125,7.023v.473Zm-9.1-4.178a9.625,9.625,0,0,0,4.889-1.334,8.061,8.061,0,0,0,3.349-3.466V27.694h-4.3q-10.075,0-10.075,5.9a4.993,4.993,0,0,0,1.719,4.031,6.6,6.6,0,0,0,4.416,1.452" transform="translate(22.454 2.266)" fill="#fff"/>
  <path id="패스_31643" data-name="패스 31643" d="M147.007,16.108a16.422,16.422,0,0,0-2.7-.208q-5.393,0-7.319,4.593V43.25h-5.482V11.188h5.334l.089,3.7a8.536,8.536,0,0,1,7.645-4.3,5.6,5.6,0,0,1,2.43.415Z" transform="translate(28.108 2.266)" fill="#fff"/>
  <path id="패스_31644" data-name="패스 31644" d="M159.576,39.369a7.9,7.9,0,0,0,5.127-1.778,6.257,6.257,0,0,0,2.429-4.445h5.186a9.947,9.947,0,0,1-1.9,5.245,12.5,12.5,0,0,1-4.669,3.971,13.473,13.473,0,0,1-6.177,1.482,13.209,13.209,0,0,1-10.416-4.372q-3.867-4.369-3.868-11.957V26.6a19.305,19.305,0,0,1,1.719-8.327,13.1,13.1,0,0,1,4.934-5.66,14.026,14.026,0,0,1,7.6-2.015,12.861,12.861,0,0,1,8.965,3.23,11.547,11.547,0,0,1,3.808,8.386h-5.186a7.559,7.559,0,0,0-2.355-5.111,7.33,7.33,0,0,0-5.231-2,7.671,7.671,0,0,0-6.474,3.008q-2.3,3.008-2.3,8.7v1.038q0,5.542,2.282,8.534a7.71,7.71,0,0,0,6.52,2.993" transform="translate(31.054 2.266)" fill="#fff"/>
  <path id="패스_31645" data-name="패스 31645" d="M176.618,17.335A11.654,11.654,0,0,1,186.1,12.86q10.164,0,10.254,11.469V45.515h-5.482V24.3q-.029-3.466-1.585-5.126a6.355,6.355,0,0,0-4.845-1.66,7.91,7.91,0,0,0-4.681,1.422,9.657,9.657,0,0,0-3.141,3.735V45.515h-5.482V0h5.482Z" transform="translate(36.578)" fill="#fff"/>
  <path id="패스_31646" data-name="패스 31646" d="M222.747,26.4H206.212L204.2,37.956h19.438L222.391,45.1H194.27l7.5-43.145h28.062l-1.274,7.2H209.205L207.4,19.437h16.593Z" transform="translate(41.522 0.418)" fill="#fff"/>
  <path id="패스_31647" data-name="패스 31647" d="M235.728,20.6l6.727-9.512h9.393L240.232,27.2l6.49,15.942h-8.476L234.305,33.13l-7.082,10.016H217.77l12.09-16.771-6.194-15.291h8.476Z" transform="translate(46.545 2.369)" fill="#fff"/>
  <path id="패스_31648" data-name="패스 31648" d="M11.563,61.548A5.561,5.561,0,0,1,9.808,65.3a5.8,5.8,0,0,1-3.963,1.3,5.474,5.474,0,0,1-3.056-.864A5.646,5.646,0,0,1,.736,63.292,8.733,8.733,0,0,1,0,59.67V57.654a8.8,8.8,0,0,1,.725-3.669,5.583,5.583,0,0,1,2.086-2.47,5.681,5.681,0,0,1,3.13-.869A5.564,5.564,0,0,1,9.883,51.99a5.631,5.631,0,0,1,1.68,3.723H10.24q-.49-3.956-4.3-3.957a4.077,4.077,0,0,0-3.366,1.579A6.861,6.861,0,0,0,1.322,57.7v1.9a6.9,6.9,0,0,0,1.222,4.293,3.935,3.935,0,0,0,3.3,1.6,4.37,4.37,0,0,0,3.1-.987,4.732,4.732,0,0,0,1.29-2.96Z" transform="translate(0 10.824)" fill="#fff"/>
  <rect id="사각형_265" data-name="사각형 265" width="1.28" height="16.385" transform="translate(14.516 60.83)" fill="#fff"/>
  <path id="패스_31649" data-name="패스 31649" d="M15.738,51.513a.86.86,0,0,1,.234-.611.841.841,0,0,1,.64-.249.858.858,0,0,1,.646.249.849.849,0,0,1,.24.611.827.827,0,0,1-.24.6.865.865,0,0,1-.646.244.847.847,0,0,1-.64-.244.837.837,0,0,1-.234-.6m1.5,14.876h-1.28V54.846h1.28Z" transform="translate(3.364 10.826)" fill="#fff"/>
  <path id="패스_31650" data-name="패스 31650" d="M20.978,54.147l.042,1.974a4.583,4.583,0,0,1,1.622-1.626,4.209,4.209,0,0,1,2.145-.561,3.459,3.459,0,0,1,2.762,1.046,4.715,4.715,0,0,1,.918,3.136v7.574H27.2V58.1a3.525,3.525,0,0,0-.657-2.3,2.568,2.568,0,0,0-2.063-.757,3.229,3.229,0,0,0-2.1.742,4.343,4.343,0,0,0-1.35,2v7.905h-1.27V54.147Z" transform="translate(4.224 11.527)" fill="#fff"/>
  <path id="패스_31651" data-name="패스 31651" d="M29.516,51.513a.86.86,0,0,1,.234-.611.841.841,0,0,1,.64-.249.858.858,0,0,1,.646.249.849.849,0,0,1,.24.611.827.827,0,0,1-.24.6.865.865,0,0,1-.646.244.847.847,0,0,1-.64-.244.837.837,0,0,1-.234-.6m1.5,14.876h-1.28V54.846h1.28Z" transform="translate(6.309 10.826)" fill="#fff"/>
  <path id="패스_31652" data-name="패스 31652" d="M37.923,64.825a3.371,3.371,0,0,0,2.234-.753,2.651,2.651,0,0,0,.977-1.947H42.36a3.615,3.615,0,0,1-.661,1.926,4.146,4.146,0,0,1-1.615,1.359,4.865,4.865,0,0,1-2.16.492,4.458,4.458,0,0,1-3.6-1.579,6.379,6.379,0,0,1-1.329-4.246v-.385a7.219,7.219,0,0,1,.6-3.019A4.6,4.6,0,0,1,35.3,54.648a4.735,4.735,0,0,1,2.608-.715,4.454,4.454,0,0,1,3.131,1.131A4.121,4.121,0,0,1,42.36,58.04H41.135a3.089,3.089,0,0,0-3.222-3.019,3.183,3.183,0,0,0-2.682,1.248,5.645,5.645,0,0,0-.955,3.5v.374a5.514,5.514,0,0,0,.955,3.445,3.2,3.2,0,0,0,2.693,1.238" transform="translate(7.052 11.527)" fill="#fff"/>
  <path id="패스_31653" data-name="패스 31653" d="M50.131,65.689a6,6,0,0,1-.245-1.611,4.472,4.472,0,0,1-1.713,1.35,5.255,5.255,0,0,1-2.2.475,3.866,3.866,0,0,1-2.693-.929,3.021,3.021,0,0,1-1.029-2.347,3.09,3.09,0,0,1,1.4-2.667,6.746,6.746,0,0,1,3.911-.981h2.315V57.666a2.531,2.531,0,0,0-.763-1.947,3.154,3.154,0,0,0-2.224-.709,3.483,3.483,0,0,0-2.209.683,2.029,2.029,0,0,0-.874,1.642l-1.28-.011a2.969,2.969,0,0,1,1.28-2.384,4.927,4.927,0,0,1,3.147-1.009A4.491,4.491,0,0,1,50,54.9a3.466,3.466,0,0,1,1.147,2.693v5.462a6.755,6.755,0,0,0,.352,2.506v.129Zm-4.011-.918a4.281,4.281,0,0,0,2.288-.619A3.643,3.643,0,0,0,49.875,62.5V59.96H47.592a5.724,5.724,0,0,0-2.987.7,2.1,2.1,0,0,0-1.078,1.862,2.063,2.063,0,0,0,.721,1.611,2.713,2.713,0,0,0,1.872.64" transform="translate(9.03 11.527)" fill="#fff"/>
  <rect id="사각형_266" data-name="사각형 266" width="1.28" height="16.385" transform="translate(63.639 60.83)" fill="#fff"/>
  <path id="패스_31654" data-name="패스 31654" d="M66.632,59.879H62.119v6.475H60.8V50.822h5.045a5.764,5.764,0,0,1,3.884,1.2,4.6,4.6,0,0,1,.522,6A4.473,4.473,0,0,1,67.9,59.6l3.883,6.614v.138h-1.4ZM62.119,58.77H66.14a3.724,3.724,0,0,0,2.657-.941,3.55,3.55,0,0,0-.042-4.988,4.331,4.331,0,0,0-2.934-.909h-3.7Z" transform="translate(12.994 10.863)" fill="#fff"/>
  <path id="패스_31655" data-name="패스 31655" d="M76.523,65.9a5.009,5.009,0,0,1-2.662-.726,4.936,4.936,0,0,1-1.85-2.021,6.3,6.3,0,0,1-.661-2.907V59.79a6.8,6.8,0,0,1,.644-3,5.15,5.15,0,0,1,1.8-2.1,4.436,4.436,0,0,1,2.5-.762,4.17,4.17,0,0,1,3.334,1.435,5.823,5.823,0,0,1,1.232,3.92V60H72.62v.246a4.83,4.83,0,0,0,1.125,3.269,3.579,3.579,0,0,0,2.832,1.307,4.161,4.161,0,0,0,1.808-.373,4.016,4.016,0,0,0,1.424-1.2l.8.608A4.66,4.66,0,0,1,76.523,65.9m-.234-10.881a3.193,3.193,0,0,0-2.427,1.056,4.875,4.875,0,0,0-1.2,2.838h6.923v-.138a4.239,4.239,0,0,0-.949-2.71,2.945,2.945,0,0,0-2.347-1.045" transform="translate(15.25 11.527)" fill="#fff"/>
  <path id="패스_31656" data-name="패스 31656" d="M88.174,62.756a1.82,1.82,0,0,0-.762-1.526,5.9,5.9,0,0,0-2.3-.9,10.292,10.292,0,0,1-2.384-.746,3.177,3.177,0,0,1-1.26-1.029,2.572,2.572,0,0,1-.409-1.472A2.744,2.744,0,0,1,82.2,54.824a4.613,4.613,0,0,1,2.923-.891,4.753,4.753,0,0,1,3.1.955,3.065,3.065,0,0,1,1.166,2.491h-1.28a2.07,2.07,0,0,0-.846-1.685,3.829,3.829,0,0,0-4.161-.113,1.73,1.73,0,0,0-.763,1.456,1.573,1.573,0,0,0,.635,1.339,6.687,6.687,0,0,0,2.316.869,10.894,10.894,0,0,1,2.516.844,3.273,3.273,0,0,1,1.244,1.077,2.962,2.962,0,0,1-.774,3.862A5.032,5.032,0,0,1,85.2,65.9a5.174,5.174,0,0,1-3.27-.976,3.011,3.011,0,0,1-1.253-2.47h1.28A2.219,2.219,0,0,0,82.9,64.2a3.852,3.852,0,0,0,2.3.624,3.626,3.626,0,0,0,2.154-.586,1.762,1.762,0,0,0,.823-1.483" transform="translate(17.243 11.527)" fill="#fff"/>
  <path id="패스_31657" data-name="패스 31657" d="M94.793,65.9a5.009,5.009,0,0,1-2.662-.726,4.936,4.936,0,0,1-1.85-2.021,6.3,6.3,0,0,1-.661-2.907V59.79a6.8,6.8,0,0,1,.644-3,5.15,5.15,0,0,1,1.8-2.1,4.436,4.436,0,0,1,2.5-.762,4.17,4.17,0,0,1,3.334,1.435,5.823,5.823,0,0,1,1.232,3.92V60H90.89v.246a4.83,4.83,0,0,0,1.125,3.269,3.579,3.579,0,0,0,2.832,1.307,4.161,4.161,0,0,0,1.808-.373,4.016,4.016,0,0,0,1.424-1.2l.8.608A4.66,4.66,0,0,1,94.793,65.9m-.234-10.881a3.193,3.193,0,0,0-2.427,1.056,4.875,4.875,0,0,0-1.2,2.838h6.923v-.138a4.239,4.239,0,0,0-.949-2.71,2.945,2.945,0,0,0-2.347-1.045" transform="translate(19.155 11.527)" fill="#fff"/>
  <path id="패스_31658" data-name="패스 31658" d="M106.817,65.689a6.046,6.046,0,0,1-.245-1.611,4.472,4.472,0,0,1-1.713,1.35,5.255,5.255,0,0,1-2.2.475,3.866,3.866,0,0,1-2.693-.929,3.021,3.021,0,0,1-1.029-2.347,3.09,3.09,0,0,1,1.4-2.667,6.746,6.746,0,0,1,3.911-.981h2.315V57.666a2.53,2.53,0,0,0-.763-1.947,3.154,3.154,0,0,0-2.224-.709,3.477,3.477,0,0,0-2.208.683,2.027,2.027,0,0,0-.875,1.642l-1.28-.011a2.969,2.969,0,0,1,1.28-2.384,4.929,4.929,0,0,1,3.147-1.009,4.491,4.491,0,0,1,3.045.966,3.466,3.466,0,0,1,1.147,2.693v5.462a6.755,6.755,0,0,0,.352,2.506v.129Zm-4.011-.918a4.281,4.281,0,0,0,2.288-.619,3.643,3.643,0,0,0,1.467-1.653V59.96h-2.283a5.724,5.724,0,0,0-2.987.7,2.1,2.1,0,0,0-1.078,1.862,2.063,2.063,0,0,0,.721,1.611,2.713,2.713,0,0,0,1.872.64" transform="translate(21.146 11.527)" fill="#fff"/>
  <path id="패스_31659" data-name="패스 31659" d="M114.33,55.234a4.773,4.773,0,0,0-.864-.075,3.118,3.118,0,0,0-2.021.668,3.65,3.65,0,0,0-1.18,1.936v7.926H109V54.147h1.249l.021,1.834a3.4,3.4,0,0,1,3.254-2.048,2.1,2.1,0,0,1,.842.138Z" transform="translate(23.296 11.527)" fill="#fff"/>
  <path id="패스_31660" data-name="패스 31660" d="M119.2,64.825a3.371,3.371,0,0,0,2.234-.753,2.651,2.651,0,0,0,.977-1.947h1.226a3.615,3.615,0,0,1-.661,1.926,4.146,4.146,0,0,1-1.615,1.359,4.865,4.865,0,0,1-2.16.492,4.458,4.458,0,0,1-3.6-1.579,6.379,6.379,0,0,1-1.329-4.246v-.385a7.219,7.219,0,0,1,.6-3.019,4.6,4.6,0,0,1,1.711-2.027,4.735,4.735,0,0,1,2.608-.715,4.454,4.454,0,0,1,3.131,1.131,4.121,4.121,0,0,1,1.317,2.976h-1.226a3.089,3.089,0,0,0-3.222-3.019,3.183,3.183,0,0,0-2.682,1.248,5.645,5.645,0,0,0-.955,3.5v.374a5.514,5.514,0,0,0,.955,3.445,3.2,3.2,0,0,0,2.693,1.238" transform="translate(24.423 11.527)" fill="#fff"/>
  <path id="패스_31661" data-name="패스 31661" d="M125.283,56.914a4.507,4.507,0,0,1,1.611-1.6,4.216,4.216,0,0,1,2.145-.566,3.463,3.463,0,0,1,2.762,1.045,4.717,4.717,0,0,1,.918,3.136V66.5h-1.27V58.919a3.531,3.531,0,0,0-.655-2.3,2.572,2.572,0,0,0-2.065-.757,3.222,3.222,0,0,0-2.1.742,4.336,4.336,0,0,0-1.35,2v7.9h-1.27V50.118h1.27Z" transform="translate(26.506 10.711)" fill="#fff"/>
  <path id="패스_31662" data-name="패스 31662" d="M138.371,66.354V50.822h4.342a6.759,6.759,0,0,1,3.424.869,6.02,6.02,0,0,1,2.363,2.491,7.848,7.848,0,0,1,.848,3.692V59.3a7.857,7.857,0,0,1-.842,3.691,5.992,5.992,0,0,1-2.374,2.486,6.952,6.952,0,0,1-3.515.875Zm1.312-14.423V65.245h2.945a5.071,5.071,0,0,0,3.936-1.629,6.294,6.294,0,0,0,1.483-4.4V57.846a6.15,6.15,0,0,0-1.461-4.292,4.986,4.986,0,0,0-3.851-1.623Z" transform="translate(29.575 10.863)" fill="#fff"/>
  <path id="패스_31663" data-name="패스 31663" d="M157.23,65.689a6,6,0,0,1-.245-1.611,4.472,4.472,0,0,1-1.713,1.35,5.255,5.255,0,0,1-2.2.475,3.866,3.866,0,0,1-2.693-.929,3.021,3.021,0,0,1-1.029-2.347,3.09,3.09,0,0,1,1.4-2.667,6.746,6.746,0,0,1,3.911-.981h2.315V57.666a2.53,2.53,0,0,0-.763-1.947,3.154,3.154,0,0,0-2.224-.709,3.483,3.483,0,0,0-2.209.683,2.029,2.029,0,0,0-.874,1.642l-1.281-.011a2.969,2.969,0,0,1,1.281-2.384,4.927,4.927,0,0,1,3.147-1.009,4.491,4.491,0,0,1,3.045.966,3.466,3.466,0,0,1,1.147,2.693v5.462a6.755,6.755,0,0,0,.352,2.506v.129Zm-4.011-.918a4.281,4.281,0,0,0,2.288-.619,3.643,3.643,0,0,0,1.467-1.653V59.96h-2.283a5.724,5.724,0,0,0-2.987.7,2.1,2.1,0,0,0-1.078,1.862,2.063,2.063,0,0,0,.721,1.611,2.713,2.713,0,0,0,1.872.64" transform="translate(31.921 11.527)" fill="#fff"/>
  <path id="패스_31664" data-name="패스 31664" d="M161.643,51.674v2.955h2.389v1.045h-2.389v7.7a2.414,2.414,0,0,0,.346,1.431,1.346,1.346,0,0,0,1.158.47,7.857,7.857,0,0,0,1.034-.107l.055,1.037a4.169,4.169,0,0,1-1.365.18,2.273,2.273,0,0,1-1.909-.762,3.577,3.577,0,0,1-.6-2.245v-7.7H158.24V54.629h2.123V51.674Z" transform="translate(33.822 11.045)" fill="#fff"/>
  <path id="패스_31665" data-name="패스 31665" d="M172.511,65.689a6,6,0,0,1-.245-1.611,4.472,4.472,0,0,1-1.713,1.35,5.255,5.255,0,0,1-2.2.475,3.866,3.866,0,0,1-2.693-.929,3.021,3.021,0,0,1-1.029-2.347,3.09,3.09,0,0,1,1.4-2.667,6.746,6.746,0,0,1,3.911-.981h2.315V57.666a2.53,2.53,0,0,0-.763-1.947,3.154,3.154,0,0,0-2.224-.709,3.483,3.483,0,0,0-2.209.683,2.029,2.029,0,0,0-.874,1.642l-1.28-.011a2.969,2.969,0,0,1,1.28-2.384,4.927,4.927,0,0,1,3.147-1.009,4.491,4.491,0,0,1,3.045.966,3.466,3.466,0,0,1,1.147,2.693v5.462a6.755,6.755,0,0,0,.352,2.506v.129Zm-4.011-.918a4.281,4.281,0,0,0,2.288-.619,3.643,3.643,0,0,0,1.467-1.653V59.96h-2.283a5.725,5.725,0,0,0-2.987.7,2.1,2.1,0,0,0-1.078,1.862,2.063,2.063,0,0,0,.721,1.611,2.713,2.713,0,0,0,1.872.64" transform="translate(35.187 11.527)" fill="#fff"/>
  <path id="패스_31666" data-name="패스 31666" d="M180.553,60.028v6.326h-1.312V50.822h5.291a5.575,5.575,0,0,1,3.825,1.238,4.862,4.862,0,0,1,.053,6.779,5.739,5.739,0,0,1-3.909,1.189Zm0-1.109h3.979a4.205,4.205,0,0,0,2.913-.908,3.241,3.241,0,0,0,1-2.532,3.39,3.39,0,0,0-1-2.569,4,4,0,0,0-2.832-.978h-4.065Z" transform="translate(38.31 10.863)" fill="#fff"/>
  <rect id="사각형_267" data-name="사각형 267" width="1.28" height="16.385" transform="translate(230.765 60.83)" fill="#fff"/>
  <path id="패스_31667" data-name="패스 31667" d="M201.359,65.689a6,6,0,0,1-.245-1.611,4.472,4.472,0,0,1-1.713,1.35,5.255,5.255,0,0,1-2.2.475,3.866,3.866,0,0,1-2.693-.929,3.021,3.021,0,0,1-1.029-2.347,3.09,3.09,0,0,1,1.4-2.667,6.746,6.746,0,0,1,3.911-.981H201.1V57.666a2.531,2.531,0,0,0-.763-1.947,3.154,3.154,0,0,0-2.224-.709,3.483,3.483,0,0,0-2.209.683,2.029,2.029,0,0,0-.874,1.642l-1.281-.011a2.969,2.969,0,0,1,1.281-2.384,4.927,4.927,0,0,1,3.147-1.009,4.491,4.491,0,0,1,3.045.966,3.467,3.467,0,0,1,1.147,2.693v5.462a6.754,6.754,0,0,0,.352,2.506v.129Zm-4.011-.918a4.281,4.281,0,0,0,2.288-.619A3.643,3.643,0,0,0,201.1,62.5V59.96H198.82a5.724,5.724,0,0,0-2.987.7,2.1,2.1,0,0,0-1.078,1.862,2.063,2.063,0,0,0,.721,1.611,2.713,2.713,0,0,0,1.872.64" transform="translate(41.353 11.527)" fill="#fff"/>
  <path id="패스_31668" data-name="패스 31668" d="M205.771,51.674v2.955h2.39v1.045h-2.39v7.7a2.4,2.4,0,0,0,.347,1.431,1.342,1.342,0,0,0,1.157.47,7.87,7.87,0,0,0,1.035-.107l.053,1.037a4.169,4.169,0,0,1-1.365.18,2.275,2.275,0,0,1-1.909-.762,3.584,3.584,0,0,1-.6-2.245v-7.7h-2.123V54.629h2.123V51.674Z" transform="translate(43.253 11.045)" fill="#fff"/>
  <path id="패스_31669" data-name="패스 31669" d="M210.34,66.544v-10.5h-1.909V55h1.909V53.6a3.8,3.8,0,0,1,.9-2.72,3.3,3.3,0,0,1,2.512-.95,4.951,4.951,0,0,1,1.355.18l-.1,1.058a5,5,0,0,0-1.163-.129,2.089,2.089,0,0,0-1.643.658,2.718,2.718,0,0,0-.586,1.868V55h2.752v1.046h-2.752v10.5Z" transform="translate(44.549 10.672)" fill="#fff"/>
  <path id="패스_31670" data-name="패스 31670" d="M214.555,59.747a6.8,6.8,0,0,1,.646-3,4.85,4.85,0,0,1,4.5-2.816,4.751,4.751,0,0,1,3.733,1.615,6.23,6.23,0,0,1,1.43,4.283V60.1a6.859,6.859,0,0,1-.646,3.014,4.828,4.828,0,0,1-1.819,2.065,4.99,4.99,0,0,1-2.677.725,4.756,4.756,0,0,1-3.729-1.615A6.214,6.214,0,0,1,214.555,60Zm1.281.352a5.234,5.234,0,0,0,1.072,3.4,3.626,3.626,0,0,0,5.611,0,5.408,5.408,0,0,0,1.073-3.5v-.245a5.858,5.858,0,0,0-.492-2.421,3.936,3.936,0,0,0-1.375-1.7,3.519,3.519,0,0,0-2.027-.6,3.41,3.41,0,0,0-2.784,1.339,5.42,5.42,0,0,0-1.078,3.505Z" transform="translate(45.858 11.527)" fill="#fff"/>
  <path id="패스_31671" data-name="패스 31671" d="M230.478,55.234a4.773,4.773,0,0,0-.864-.075,3.118,3.118,0,0,0-2.021.668,3.65,3.65,0,0,0-1.18,1.936v7.926h-1.27V54.147h1.249l.021,1.834a3.4,3.4,0,0,1,3.254-2.048,2.1,2.1,0,0,1,.842.138Z" transform="translate(48.122 11.527)" fill="#fff"/>
  <path id="패스_31672" data-name="패스 31672" d="M232.3,54.147l.042,1.878a4.274,4.274,0,0,1,1.6-1.568,4.387,4.387,0,0,1,2.133-.523,3.239,3.239,0,0,1,3.468,2.241,4.342,4.342,0,0,1,1.653-1.659,4.582,4.582,0,0,1,2.283-.581q3.712,0,3.787,4.054v7.7h-1.281V58.083a3.436,3.436,0,0,0-.666-2.293,2.71,2.71,0,0,0-2.139-.748,3.4,3.4,0,0,0-2.326.891,3.143,3.143,0,0,0-1.056,2.118v7.638h-1.28v-7.7a3.166,3.166,0,0,0-.7-2.214,2.781,2.781,0,0,0-2.117-.731,3.218,3.218,0,0,0-2.069.688,4.029,4.029,0,0,0-1.28,2.043v7.916h-1.28V54.147Z" transform="translate(49.389 11.527)" fill="#fff"/>
  <rect id="사각형_268" data-name="사각형 268" width="298.393" height="77.429" fill="none"/>
</svg>
