<?xml version="1.0" encoding="UTF-8"?><svg xmlns="http://www.w3.org/2000/svg" viewBox="0 0 245.85 63.79"><defs><style>.d{fill:#005ce2;}.e{fill:#317efd;}.f{fill:#888;}</style></defs><g id="a"/><g id="b"><g id="c"><g><g><path class="e" d="M16.01,23.12H7.66v14.38H2.95V1.95H14.72c4,0,7.08,.91,9.24,2.73,2.16,1.82,3.23,4.48,3.23,7.96,0,2.21-.6,4.14-1.79,5.79-1.2,1.64-2.86,2.87-4.99,3.69l8.35,15.09v.29h-5.03l-7.71-14.38Zm-8.35-3.83h7.2c2.33,0,4.18-.6,5.55-1.81,1.38-1.21,2.06-2.82,2.06-4.84,0-2.2-.66-3.89-1.97-5.06-1.31-1.17-3.2-1.77-5.68-1.79H7.66v13.5Z"/><path class="e" d="M42.51,37.99c-3.58,0-6.49-1.18-8.74-3.53-2.25-2.35-3.37-5.5-3.37-9.44v-.83c0-2.62,.5-4.96,1.5-7.02,1-2.06,2.4-3.67,4.2-4.83,1.8-1.16,3.75-1.75,5.85-1.75,3.43,0,6.1,1.13,8.01,3.39,1.9,2.26,2.86,5.5,2.86,9.72v1.88h-17.9c.06,2.6,.83,4.71,2.28,6.31,1.46,1.6,3.31,2.4,5.55,2.4,1.59,0,2.95-.33,4.05-.98,1.11-.65,2.08-1.51,2.91-2.59l2.76,2.15c-2.21,3.4-5.53,5.1-9.96,5.1Zm-.56-23.68c-1.82,0-3.35,.66-4.59,1.99-1.24,1.33-2,3.19-2.29,5.58h13.23v-.34c-.13-2.29-.75-4.07-1.86-5.33-1.11-1.26-2.6-1.89-4.49-1.89Z"/><path class="e" d="M71.92,30.49c0-1.22-.46-2.17-1.38-2.84-.92-.68-2.52-1.26-4.81-1.75-2.29-.49-4.1-1.07-5.44-1.76s-2.34-1.5-2.98-2.44c-.64-.94-.96-2.07-.96-3.37,0-2.16,.92-4,2.75-5.49,1.83-1.5,4.17-2.25,7.02-2.25,2.99,0,5.42,.77,7.29,2.32,1.86,1.55,2.8,3.52,2.8,5.93h-4.54c0-1.24-.52-2.3-1.57-3.2-1.05-.9-2.37-1.34-3.97-1.34s-2.93,.36-3.86,1.07c-.93,.72-1.39,1.65-1.39,2.81,0,1.09,.43,1.91,1.29,2.47,.86,.55,2.42,1.08,4.68,1.59,2.25,.5,4.08,1.11,5.48,1.81,1.4,.7,2.44,1.54,3.11,2.53,.68,.98,1.01,2.19,1.01,3.6,0,2.36-.94,4.25-2.83,5.68-1.89,1.42-4.34,2.14-7.35,2.14-2.12,0-3.99-.37-5.62-1.12-1.63-.75-2.9-1.79-3.82-3.14-.92-1.34-1.38-2.8-1.38-4.36h4.52c.08,1.51,.69,2.71,1.82,3.6,1.13,.89,2.62,1.33,4.48,1.33,1.71,0,3.08-.35,4.11-1.04,1.03-.69,1.55-1.62,1.55-2.77Z"/><path class="e" d="M91.79,37.99c-3.58,0-6.49-1.18-8.74-3.53-2.25-2.35-3.37-5.5-3.37-9.44v-.83c0-2.62,.5-4.96,1.5-7.02,1-2.06,2.4-3.67,4.2-4.83,1.8-1.16,3.75-1.75,5.85-1.75,3.43,0,6.1,1.13,8.01,3.39,1.9,2.26,2.86,5.5,2.86,9.72v1.88h-17.9c.06,2.6,.83,4.71,2.28,6.31,1.46,1.6,3.31,2.4,5.55,2.4,1.59,0,2.95-.33,4.05-.98,1.11-.65,2.08-1.51,2.91-2.59l2.76,2.15c-2.21,3.4-5.53,5.1-9.96,5.1Zm-.56-23.68c-1.82,0-3.35,.66-4.59,1.99-1.24,1.33-2,3.19-2.29,5.58h13.23v-.34c-.13-2.29-.75-4.07-1.86-5.33-1.11-1.26-2.6-1.89-4.49-1.89Z"/><path class="e" d="M122.12,37.5c-.26-.52-.47-1.45-.63-2.78-2.1,2.18-4.61,3.27-7.52,3.27-2.6,0-4.74-.74-6.41-2.21-1.67-1.47-2.5-3.34-2.5-5.6,0-2.75,1.05-4.89,3.14-6.41,2.09-1.52,5.03-2.28,8.83-2.28h4.39v-2.08c0-1.58-.47-2.84-1.42-3.77-.94-.94-2.34-1.4-4.17-1.4-1.61,0-2.96,.41-4.05,1.22-1.09,.81-1.64,1.8-1.64,2.95h-4.54c0-1.32,.47-2.59,1.4-3.82,.94-1.23,2.21-2.2,3.81-2.92,1.6-.72,3.36-1.07,5.29-1.07,3.04,0,5.43,.76,7.15,2.28,1.73,1.52,2.62,3.62,2.69,6.29v12.16c0,2.43,.31,4.35,.93,5.79v.39h-4.74Zm-7.5-3.44c1.42,0,2.76-.37,4.03-1.1s2.19-1.68,2.76-2.86v-5.42h-3.54c-5.53,0-8.3,1.62-8.3,4.86,0,1.42,.47,2.52,1.42,3.32,.94,.8,2.16,1.2,3.64,1.2Z"/><path class="e" d="M144.28,15.14c-.68-.11-1.42-.17-2.22-.17-2.96,0-4.97,1.26-6.03,3.78v18.75h-4.52V11.08h4.39l.07,3.05c1.48-2.36,3.58-3.54,6.3-3.54,.88,0,1.55,.11,2,.34v4.2Z"/><path class="e" d="M157.06,34.3c1.61,0,3.02-.49,4.22-1.46,1.2-.98,1.87-2.2,2-3.66h4.27c-.08,1.51-.6,2.95-1.56,4.32-.96,1.37-2.24,2.46-3.85,3.27-1.6,.81-3.3,1.22-5.09,1.22-3.6,0-6.46-1.2-8.58-3.6-2.12-2.4-3.19-5.68-3.19-9.85v-.76c0-2.57,.47-4.86,1.42-6.86,.94-2,2.3-3.56,4.06-4.66,1.77-1.11,3.85-1.66,6.26-1.66,2.96,0,5.42,.89,7.39,2.66,1.96,1.77,3.01,4.08,3.14,6.91h-4.27c-.13-1.71-.78-3.11-1.94-4.21-1.16-1.1-2.6-1.65-4.31-1.65-2.29,0-4.07,.83-5.33,2.48-1.26,1.65-1.89,4.04-1.89,7.17v.85c0,3.04,.63,5.39,1.88,7.03,1.25,1.64,3.04,2.47,5.37,2.47Z"/><path class="e" d="M175.65,14.28c2-2.46,4.61-3.69,7.81-3.69,5.58,0,8.4,3.15,8.45,9.45v17.46h-4.52V20.02c-.02-1.9-.45-3.31-1.31-4.22-.85-.91-2.19-1.37-3.99-1.37-1.46,0-2.75,.39-3.86,1.17-1.11,.78-1.97,1.81-2.59,3.08v18.82h-4.52V0h4.52V14.28Z"/><path class="d" d="M217.73,22.09h-13.62l-1.66,9.52h16.02l-1.03,5.88h-23.17L200.45,1.95h23.12l-1.05,5.93h-15.94l-1.49,8.47h13.67l-1.03,5.74Z"/><path class="d" d="M232.57,18.92l5.54-7.84h7.74l-9.57,13.28,5.35,13.13h-6.98l-3.25-8.25-5.83,8.25h-7.79l9.96-13.82-5.1-12.6h6.98l2.95,7.84Z"/></g><g><path class="f" d="M9.53,59.63c-.15,1.35-.63,2.38-1.45,3.09s-1.91,1.07-3.27,1.07c-.95,0-1.79-.24-2.52-.71s-1.29-1.15-1.69-2.02-.6-1.86-.61-2.98v-1.66c0-1.14,.2-2.14,.6-3.02s.97-1.56,1.72-2.03,1.61-.72,2.58-.72c1.37,0,2.45,.37,3.25,1.11s1.26,1.76,1.38,3.07h-1.09c-.27-2.17-1.45-3.26-3.54-3.26-1.16,0-2.08,.43-2.77,1.3-.69,.87-1.03,2.07-1.03,3.6v1.57c0,1.48,.34,2.66,1.01,3.54s1.58,1.32,2.72,1.32,1.98-.27,2.56-.81,.93-1.35,1.06-2.44h1.09Z"/><path class="f" d="M13.02,63.62h-1.05v-13.5h1.05v13.5Z"/><path class="f" d="M15.74,51.36c0-.2,.06-.37,.19-.5,.13-.14,.3-.21,.53-.21s.4,.07,.53,.21c.13,.14,.2,.3,.2,.5s-.07,.36-.2,.5c-.13,.13-.31,.2-.53,.2s-.4-.07-.53-.2c-.13-.13-.19-.3-.19-.5Zm1.24,12.26h-1.05v-9.51h1.05v9.51Z"/><path class="f" d="M20.76,54.11l.04,1.63c.36-.59,.8-1.03,1.34-1.34s1.12-.46,1.77-.46c1.02,0,1.78,.29,2.28,.86s.75,1.44,.76,2.58v6.24h-1.05v-6.25c0-.85-.19-1.48-.54-1.9s-.92-.62-1.7-.62c-.65,0-1.23,.2-1.73,.61s-.87,.96-1.11,1.65v6.51h-1.05v-9.51h1Z"/><path class="f" d="M29.52,51.36c0-.2,.06-.37,.19-.5,.13-.14,.3-.21,.53-.21s.4,.07,.53,.21c.13,.14,.2,.3,.2,.5s-.07,.36-.2,.5c-.13,.13-.31,.2-.53,.2s-.4-.07-.53-.2c-.13-.13-.19-.3-.19-.5Zm1.24,12.26h-1.05v-9.51h1.05v9.51Z"/><path class="f" d="M37.06,62.91c.73,0,1.35-.21,1.84-.62s.76-.95,.8-1.6h1.01c-.03,.58-.21,1.11-.54,1.59s-.78,.85-1.33,1.12-1.15,.4-1.78,.4c-1.25,0-2.24-.43-2.97-1.3s-1.09-2.03-1.09-3.5v-.32c0-.94,.16-1.77,.49-2.49s.8-1.28,1.41-1.67,1.33-.59,2.15-.59c1.04,0,1.9,.31,2.58,.93s1.04,1.44,1.09,2.45h-1.01c-.05-.74-.31-1.34-.8-1.8s-1.11-.69-1.85-.69c-.95,0-1.69,.34-2.21,1.03s-.79,1.65-.79,2.88v.31c0,1.21,.26,2.16,.79,2.84s1.26,1.02,2.22,1.02Z"/><path class="f" d="M48.74,63.62c-.11-.3-.17-.74-.2-1.33-.37,.48-.84,.85-1.41,1.11s-1.18,.39-1.81,.39c-.91,0-1.65-.25-2.22-.76s-.85-1.15-.85-1.93c0-.93,.39-1.66,1.16-2.2s1.84-.81,3.22-.81h1.91v-1.08c0-.68-.21-1.21-.63-1.6s-1.03-.58-1.83-.58c-.73,0-1.34,.19-1.82,.56s-.72,.83-.72,1.35h-1.05c0-.76,.35-1.42,1.05-1.97s1.57-.83,2.59-.83,1.9,.27,2.51,.8,.93,1.27,.94,2.22v4.5c0,.92,.1,1.61,.29,2.07v.11h-1.12Zm-3.3-.76c.7,0,1.33-.17,1.89-.51s.96-.79,1.21-1.36v-2.09h-1.88c-1.05,.01-1.87,.2-2.46,.58s-.89,.88-.89,1.53c0,.53,.2,.98,.59,1.33s.91,.53,1.54,.53Z"/><path class="f" d="M53.49,63.62h-1.05v-13.5h1.05v13.5Z"/><path class="f" d="M65.6,58.28h-3.72v5.33h-1.09v-12.8h4.16c1.37,0,2.43,.33,3.2,.99,.77,.66,1.15,1.59,1.15,2.77,0,.82-.24,1.54-.72,2.17-.48,.63-1.12,1.06-1.93,1.3l3.2,5.45v.11h-1.15l-3.09-5.33Zm-3.72-.91h3.31c.91,0,1.64-.26,2.19-.77,.55-.52,.83-1.19,.83-2.01,0-.9-.29-1.6-.86-2.1-.57-.5-1.38-.75-2.42-.75h-3.05v5.63Z"/><path class="f" d="M75.61,63.79c-.81,0-1.54-.2-2.19-.6s-1.16-.95-1.52-1.67-.54-1.51-.54-2.4v-.38c0-.91,.18-1.74,.53-2.47s.85-1.31,1.48-1.73,1.32-.63,2.06-.63c1.15,0,2.07,.39,2.75,1.18s1.02,1.86,1.02,3.23v.59h-6.79v.2c0,1.08,.31,1.98,.93,2.69s1.4,1.08,2.33,1.08c.56,0,1.06-.1,1.49-.31s.82-.53,1.17-.98l.66,.5c-.77,1.12-1.9,1.68-3.37,1.68Zm-.19-8.96c-.79,0-1.46,.29-2,.87s-.87,1.36-.99,2.34h5.7v-.11c-.03-.91-.29-1.66-.78-2.23s-1.14-.86-1.93-.86Z"/><path class="f" d="M86.85,61.2c0-.52-.21-.94-.63-1.26s-1.05-.56-1.89-.74-1.5-.38-1.96-.62-.81-.51-1.04-.85-.34-.74-.34-1.21c0-.75,.31-1.37,.94-1.86s1.43-.73,2.41-.73c1.06,0,1.91,.26,2.55,.79s.96,1.21,.96,2.05h-1.05c0-.56-.23-1.02-.7-1.39s-1.05-.55-1.76-.55-1.25,.15-1.67,.46-.63,.71-.63,1.2,.17,.84,.52,1.1,.98,.5,1.91,.72,1.61,.45,2.07,.69,.8,.54,1.02,.89,.33,.76,.33,1.26c0,.8-.32,1.44-.97,1.92s-1.49,.72-2.54,.72c-1.11,0-2.01-.27-2.69-.8s-1.03-1.21-1.03-2.03h1.05c.04,.62,.3,1.09,.78,1.44s1.11,.51,1.89,.51c.73,0,1.32-.16,1.78-.48s.68-.73,.68-1.22Z"/><path class="f" d="M93.88,63.79c-.81,0-1.54-.2-2.19-.6s-1.16-.95-1.52-1.67-.54-1.51-.54-2.4v-.38c0-.91,.18-1.74,.53-2.47s.85-1.31,1.48-1.73,1.32-.63,2.06-.63c1.15,0,2.07,.39,2.75,1.18s1.02,1.86,1.02,3.23v.59h-6.79v.2c0,1.08,.31,1.98,.93,2.69s1.4,1.08,2.33,1.08c.56,0,1.06-.1,1.49-.31s.82-.53,1.17-.98l.66,.5c-.77,1.12-1.9,1.68-3.37,1.68Zm-.19-8.96c-.79,0-1.46,.29-2,.87s-.87,1.36-.99,2.34h5.7v-.11c-.03-.91-.29-1.66-.78-2.23s-1.14-.86-1.93-.86Z"/><path class="f" d="M105.43,63.62c-.11-.3-.17-.74-.2-1.33-.37,.48-.84,.85-1.41,1.11s-1.18,.39-1.81,.39c-.91,0-1.65-.25-2.22-.76s-.85-1.15-.85-1.93c0-.93,.39-1.66,1.16-2.2s1.84-.81,3.22-.81h1.91v-1.08c0-.68-.21-1.21-.63-1.6s-1.03-.58-1.83-.58c-.73,0-1.34,.19-1.82,.56s-.72,.83-.72,1.35h-1.05c0-.76,.35-1.42,1.05-1.97s1.57-.83,2.59-.83,1.9,.27,2.51,.8,.93,1.27,.94,2.22v4.5c0,.92,.1,1.61,.29,2.07v.11h-1.12Zm-3.3-.76c.7,0,1.33-.17,1.89-.51s.96-.79,1.21-1.36v-2.09h-1.88c-1.05,.01-1.87,.2-2.46,.58s-.89,.88-.89,1.53c0,.53,.2,.98,.59,1.33s.91,.53,1.54,.53Z"/><path class="f" d="M113.39,55.01c-.22-.04-.46-.06-.71-.06-.66,0-1.21,.18-1.67,.55s-.78,.9-.97,1.6v6.53h-1.05v-9.51h1.03l.02,1.51c.56-1.12,1.45-1.69,2.68-1.69,.29,0,.52,.04,.69,.11l-.03,.96Z"/><path class="f" d="M118.33,62.91c.73,0,1.35-.21,1.84-.62s.76-.95,.8-1.6h1.01c-.03,.58-.21,1.11-.54,1.59s-.78,.85-1.33,1.12-1.15,.4-1.78,.4c-1.25,0-2.24-.43-2.97-1.3s-1.09-2.03-1.09-3.5v-.32c0-.94,.16-1.77,.49-2.49s.8-1.28,1.41-1.67,1.33-.59,2.15-.59c1.04,0,1.9,.31,2.58,.93s1.04,1.44,1.09,2.45h-1.01c-.05-.74-.31-1.34-.8-1.8s-1.11-.69-1.85-.69c-.95,0-1.69,.34-2.21,1.03s-.79,1.65-.79,2.88v.31c0,1.21,.26,2.16,.79,2.84s1.26,1.02,2.22,1.02Z"/><path class="f" d="M125.06,55.72c.35-.57,.79-1.01,1.33-1.32s1.13-.47,1.77-.47c1.02,0,1.78,.29,2.28,.86s.75,1.44,.76,2.58v6.24h-1.05v-6.25c0-.85-.19-1.48-.54-1.9s-.92-.62-1.7-.62c-.65,0-1.23,.2-1.73,.61s-.87,.96-1.11,1.65v6.51h-1.05v-13.5h1.05v5.6Z"/><path class="f" d="M138.37,63.62v-12.8h3.58c1.05,0,1.99,.24,2.82,.72s1.48,1.16,1.95,2.05,.7,1.9,.7,3.04v1.18c0,1.14-.23,2.16-.69,3.04s-1.11,1.57-1.96,2.05-1.81,.72-2.9,.72h-3.5Zm1.08-11.88v10.97h2.43c1.35,0,2.43-.45,3.24-1.34,.81-.89,1.22-2.1,1.22-3.63v-1.13c0-1.47-.4-2.65-1.2-3.54-.8-.89-1.86-1.33-3.17-1.34h-2.51Z"/><path class="f" d="M155.84,63.62c-.11-.3-.17-.74-.2-1.33-.37,.48-.84,.85-1.41,1.11s-1.18,.39-1.81,.39c-.91,0-1.65-.25-2.22-.76s-.85-1.15-.85-1.93c0-.93,.39-1.66,1.16-2.2s1.84-.81,3.22-.81h1.91v-1.08c0-.68-.21-1.21-.63-1.6s-1.03-.58-1.83-.58c-.73,0-1.34,.19-1.82,.56s-.72,.83-.72,1.35h-1.05c0-.76,.35-1.42,1.05-1.97s1.57-.83,2.59-.83,1.9,.27,2.51,.8,.93,1.27,.94,2.22v4.5c0,.92,.1,1.61,.29,2.07v.11h-1.12Zm-3.3-.76c.7,0,1.33-.17,1.89-.51s.96-.79,1.21-1.36v-2.09h-1.88c-1.05,.01-1.87,.2-2.46,.58s-.89,.88-.89,1.53c0,.53,.2,.98,.59,1.33s.91,.53,1.54,.53Z"/><path class="f" d="M161.04,51.67v2.43h1.97v.86h-1.97v6.34c0,.53,.1,.92,.29,1.18,.19,.26,.51,.39,.95,.39,.18,0,.46-.03,.85-.09l.04,.85c-.28,.1-.65,.15-1.12,.15-.72,0-1.25-.21-1.57-.63s-.49-1.04-.49-1.85v-6.35h-1.75v-.86h1.75v-2.43h1.05Z"/><path class="f" d="M171.12,63.62c-.11-.3-.17-.74-.2-1.33-.37,.48-.84,.85-1.41,1.11s-1.18,.39-1.81,.39c-.91,0-1.65-.25-2.22-.76s-.85-1.15-.85-1.93c0-.93,.39-1.66,1.16-2.2s1.84-.81,3.22-.81h1.91v-1.08c0-.68-.21-1.21-.63-1.6s-1.03-.58-1.83-.58c-.73,0-1.34,.19-1.82,.56s-.72,.83-.72,1.35h-1.05c0-.76,.35-1.42,1.05-1.97s1.57-.83,2.59-.83,1.9,.27,2.51,.8,.93,1.27,.94,2.22v4.5c0,.92,.1,1.61,.29,2.07v.11h-1.12Zm-3.3-.76c.7,0,1.33-.17,1.89-.51s.96-.79,1.21-1.36v-2.09h-1.88c-1.05,.01-1.87,.2-2.46,.58s-.89,.88-.89,1.53c0,.53,.2,.98,.59,1.33s.91,.53,1.54,.53Z"/><path class="f" d="M180.32,58.41v5.21h-1.08v-12.8h4.36c1.33,0,2.38,.34,3.15,1.02s1.16,1.61,1.16,2.8-.37,2.13-1.11,2.78-1.81,.98-3.22,.98h-3.25Zm0-.91h3.28c1.05,0,1.85-.25,2.4-.75,.55-.5,.83-1.19,.83-2.09s-.27-1.59-.82-2.12c-.55-.53-1.33-.79-2.33-.81h-3.35v5.76Z"/><path class="f" d="M191.18,63.62h-1.05v-13.5h1.05v13.5Z"/><path class="f" d="M199.97,63.62c-.11-.3-.17-.74-.2-1.33-.37,.48-.84,.85-1.41,1.11s-1.18,.39-1.81,.39c-.91,0-1.65-.25-2.22-.76s-.85-1.15-.85-1.93c0-.93,.39-1.66,1.16-2.2s1.84-.81,3.22-.81h1.91v-1.08c0-.68-.21-1.21-.63-1.6s-1.03-.58-1.83-.58c-.73,0-1.34,.19-1.82,.56s-.72,.83-.72,1.35h-1.05c0-.76,.35-1.42,1.05-1.97s1.57-.83,2.59-.83,1.9,.27,2.51,.8,.93,1.27,.94,2.22v4.5c0,.92,.1,1.61,.29,2.07v.11h-1.12Zm-3.3-.76c.7,0,1.33-.17,1.89-.51s.96-.79,1.21-1.36v-2.09h-1.88c-1.05,.01-1.87,.2-2.46,.58s-.89,.88-.89,1.53c0,.53,.2,.98,.59,1.33s.91,.53,1.54,.53Z"/><path class="f" d="M205.17,51.67v2.43h1.97v.86h-1.97v6.34c0,.53,.1,.92,.29,1.18,.19,.26,.51,.39,.95,.39,.18,0,.46-.03,.85-.09l.04,.85c-.28,.1-.65,.15-1.12,.15-.72,0-1.25-.21-1.57-.63s-.49-1.04-.49-1.85v-6.35h-1.75v-.86h1.75v-2.43h1.05Z"/><path class="f" d="M210,63.62v-8.65h-1.57v-.86h1.57v-1.15c0-.97,.25-1.72,.74-2.24s1.19-.78,2.07-.78c.4,0,.77,.05,1.12,.15l-.08,.87c-.29-.07-.61-.11-.96-.11-.58,0-1.03,.18-1.35,.54s-.48,.87-.48,1.54v1.18h2.27v.86h-2.27v8.65h-1.05Z"/><path class="f" d="M214.56,58.72c0-.91,.18-1.74,.53-2.47s.86-1.3,1.5-1.71,1.38-.61,2.2-.61c1.27,0,2.29,.44,3.08,1.33s1.18,2.06,1.18,3.53v.22c0,.92-.18,1.75-.53,2.48s-.85,1.3-1.5,1.7-1.38,.6-2.21,.6c-1.26,0-2.28-.44-3.07-1.33s-1.18-2.06-1.18-3.53v-.21Zm1.05,.29c0,1.14,.29,2.07,.88,2.8s1.36,1.09,2.32,1.09,1.72-.36,2.31-1.09,.88-1.69,.88-2.89v-.2c0-.73-.13-1.39-.4-2s-.65-1.07-1.13-1.4-1.04-.5-1.67-.5c-.94,0-1.7,.37-2.29,1.1s-.89,1.7-.89,2.89v.19Z"/><path class="f" d="M229.54,55.01c-.22-.04-.46-.06-.71-.06-.66,0-1.21,.18-1.67,.55s-.78,.9-.97,1.6v6.53h-1.05v-9.51h1.03l.02,1.51c.56-1.12,1.45-1.69,2.68-1.69,.29,0,.52,.04,.69,.11l-.03,.96Z"/><path class="f" d="M232.09,54.11l.04,1.55c.35-.57,.79-1,1.32-1.29s1.11-.43,1.76-.43c1.5,0,2.45,.62,2.86,1.85,.34-.59,.79-1.05,1.36-1.37s1.2-.48,1.88-.48c2.04,0,3.08,1.11,3.12,3.34v6.35h-1.05v-6.27c0-.85-.19-1.48-.55-1.89s-.95-.62-1.76-.62c-.76,.01-1.39,.26-1.92,.73s-.81,1.06-.87,1.74v6.29h-1.05v-6.35c0-.81-.2-1.42-.58-1.82s-.96-.6-1.74-.6c-.66,0-1.23,.19-1.71,.57s-.83,.94-1.05,1.68v6.52h-1.05v-9.51h1.01Z"/></g></g></g></g></svg>
